<svg width="134.622070" height="45.000000" viewBox="0 0 134.622 45" fill="none" xmlns="http://www.w3.org/2000/svg" xmlns:xlink="http://www.w3.org/1999/xlink">
	<desc>
			Created with Pixso.
	</desc>
	<defs>
		<clipPath id="clip1_16010">
			<rect id="Badge" rx="0.000000" width="134.272079" height="44.650002" transform="translate(0.175000 0.175000)" fill="white" fill-opacity="0"/>
		</clipPath>
	</defs>
	<rect id="Badge" rx="0.000000" width="134.272079" height="44.650002" transform="translate(0.175000 0.175000)" fill="#FFFFFF" fill-opacity="0"/>
	<g clip-path="url(#clip1_16010)">
		<path id="Vector" d="M123.9 -0.01L10.72 -0.01C10.31 -0.01 9.9 -0.01 9.49 0C9.15 0 8.8 0.01 8.46 0.01C7.7 0.02 6.95 0.09 6.2 0.21C5.46 0.34 4.74 0.57 4.06 0.92C3.39 1.26 2.78 1.71 2.24 2.24C1.71 2.77 1.26 3.39 0.92 4.07C0.57 4.74 0.34 5.46 0.21 6.21C0.09 6.95 0.02 7.7 0.01 8.46C0 8.8 0 9.15 0 9.49L0 35.5C0 35.85 0 36.19 0.01 36.54C0.02 37.29 0.09 38.04 0.21 38.79C0.34 39.53 0.57 40.26 0.92 40.93C1.26 41.6 1.71 42.22 2.24 42.75C2.77 43.28 3.39 43.73 4.06 44.07C4.74 44.41 5.46 44.65 6.2 44.78C6.95 44.9 7.7 44.97 8.46 44.98C8.8 44.99 9.15 44.99 9.49 44.99C9.9 44.99 10.31 44.99 10.72 44.99L123.9 44.99C124.3 44.99 124.71 44.99 125.12 44.99C125.46 44.99 125.81 44.99 126.15 44.98C126.91 44.97 127.66 44.9 128.4 44.78C129.15 44.65 129.87 44.41 130.55 44.07C131.22 43.73 131.84 43.28 132.37 42.75C132.91 42.21 133.35 41.6 133.7 40.93C134.04 40.26 134.27 39.53 134.39 38.79C134.52 38.04 134.59 37.29 134.6 36.54C134.61 36.19 134.61 35.85 134.61 35.5C134.62 35.09 134.62 34.68 134.62 34.27L134.62 10.72C134.62 10.31 134.62 9.9 134.61 9.49C134.61 9.15 134.61 8.8 134.6 8.46C134.59 7.7 134.52 6.95 134.39 6.21C134.27 5.46 134.04 4.74 133.7 4.07C133 2.71 131.9 1.61 130.55 0.92C129.87 0.57 129.15 0.34 128.4 0.21C127.66 0.09 126.91 0.02 126.15 0.01C125.81 0.01 125.46 0 125.12 0C124.71 -0.01 124.3 -0.01 123.9 -0.01L123.9 -0.01Z" fill="#FFFFFF" fill-opacity="1.000000" fill-rule="nonzero"/>
		<path id="&lt;Path&gt;" d="M28.12 22.37C28.13 21.39 28.39 20.44 28.87 19.59C29.35 18.74 30.04 18.02 30.87 17.51C30.34 16.76 29.65 16.14 28.84 15.7C28.03 15.26 27.13 15.02 26.2 14.99C24.24 14.78 22.34 16.16 21.33 16.16C20.31 16.16 18.77 15.01 17.11 15.04C16.04 15.08 14.99 15.39 14.08 15.95C13.16 16.51 12.4 17.3 11.88 18.23C9.62 22.15 11.3 27.91 13.47 31.07C14.56 32.63 15.82 34.36 17.48 34.3C19.1 34.23 19.71 33.26 21.67 33.26C23.61 33.26 24.18 34.3 25.87 34.26C27.61 34.23 28.71 32.7 29.76 31.13C30.53 30.03 31.13 28.81 31.53 27.52C30.52 27.09 29.66 26.37 29.05 25.46C28.44 24.54 28.12 23.47 28.12 22.37Z" fill="#282739" fill-opacity="1.000000" fill-rule="nonzero"/>
		<path id="&lt;Path&gt;" d="M24.92 12.91C25.87 11.77 26.34 10.3 26.22 8.82C24.77 8.97 23.43 9.67 22.47 10.76C22 11.3 21.64 11.92 21.41 12.6C21.18 13.27 21.09 13.99 21.13 14.7C21.86 14.7 22.58 14.55 23.23 14.24C23.89 13.93 24.47 13.47 24.92 12.91Z" fill="#282739" fill-opacity="1.000000" fill-rule="nonzero"/>
		<path id="Vector" d="M47.58 30.53L42.26 30.53L40.98 34.3L38.73 34.3L43.77 20.33L46.11 20.33L51.16 34.3L48.86 34.3L47.58 30.53ZM42.81 28.78L47.03 28.78L44.95 22.66L44.89 22.66L42.81 28.78Z" fill="#282739" fill-opacity="1.000000" fill-rule="nonzero"/>
		<path id="Vector" d="M62.05 29.21C62.05 32.38 60.36 34.41 57.8 34.41C57.15 34.44 56.51 34.29 55.94 33.98C55.37 33.66 54.91 33.2 54.59 32.63L54.55 32.63L54.55 37.67L52.45 37.67L52.45 24.12L54.48 24.12L54.48 25.81L54.52 25.81C54.84 25.25 55.32 24.78 55.89 24.46C56.46 24.15 57.11 23.99 57.76 24.01C60.35 24.01 62.05 26.05 62.05 29.21ZM59.9 29.21C59.9 27.15 58.83 25.79 57.21 25.79C55.61 25.79 54.54 27.18 54.54 29.21C54.54 31.26 55.61 32.64 57.21 32.64C58.83 32.64 59.9 31.29 59.9 29.21L59.9 29.21Z" fill="#282739" fill-opacity="1.000000" fill-rule="nonzero"/>
		<path id="Vector" d="M73.26 29.21C73.26 32.38 71.57 34.41 69.01 34.41C68.36 34.44 67.72 34.29 67.15 33.98C66.58 33.66 66.12 33.2 65.8 32.63L65.76 32.63L65.76 37.67L63.67 37.67L63.67 24.12L65.69 24.12L65.69 25.81L65.73 25.81C66.05 25.25 66.53 24.78 67.1 24.46C67.67 24.15 68.32 23.99 68.97 24.01C71.56 24.01 73.26 26.05 73.26 29.21ZM71.11 29.21C71.11 27.15 70.05 25.79 68.42 25.79C66.82 25.79 65.75 27.18 65.75 29.21C65.75 31.26 66.82 32.64 68.42 32.64C70.05 32.64 71.11 31.29 71.11 29.21Z" fill="#282739" fill-opacity="1.000000" fill-rule="nonzero"/>
		<path id="Vector" d="M80.67 30.41C80.82 31.8 82.17 32.71 84.01 32.71C85.77 32.71 87.04 31.8 87.04 30.55C87.04 29.46 86.27 28.81 84.46 28.37L82.65 27.93C80.09 27.31 78.9 26.11 78.9 24.17C78.9 21.76 81 20.1 83.98 20.1C86.93 20.1 88.96 21.76 89.02 24.17L86.91 24.17C86.79 22.77 85.63 21.93 83.95 21.93C82.27 21.93 81.11 22.78 81.11 24.02C81.11 25.01 81.85 25.59 83.65 26.03L85.19 26.41C88.06 27.09 89.25 28.24 89.25 30.29C89.25 32.9 87.16 34.54 83.85 34.54C80.76 34.54 78.66 32.94 78.53 30.41L80.67 30.41Z" fill="#282739" fill-opacity="1.000000" fill-rule="nonzero"/>
		<path id="Vector" d="M93.76 21.71L93.76 24.12L95.7 24.12L95.7 25.77L93.76 25.77L93.76 31.39C93.76 32.26 94.15 32.67 95 32.67C95.23 32.66 95.46 32.65 95.69 32.62L95.69 34.26C95.3 34.34 94.91 34.37 94.53 34.36C92.46 34.36 91.66 33.59 91.66 31.61L91.66 25.77L90.18 25.77L90.18 24.12L91.66 24.12L91.66 21.71L93.76 21.71Z" fill="#282739" fill-opacity="1.000000" fill-rule="nonzero"/>
		<path id="Vector" d="M96.82 29.21C96.82 26.01 98.7 23.99 101.65 23.99C104.6 23.99 106.48 26.01 106.48 29.21C106.48 32.42 104.61 34.43 101.65 34.43C98.69 34.43 96.82 32.42 96.82 29.21ZM104.35 29.21C104.35 27.01 103.34 25.72 101.65 25.72C99.95 25.72 98.95 27.02 98.95 29.21C98.95 31.42 99.95 32.71 101.65 32.71C103.34 32.71 104.35 31.42 104.35 29.21L104.35 29.21Z" fill="#282739" fill-opacity="1.000000" fill-rule="nonzero"/>
		<path id="Vector" d="M108.2 24.12L110.2 24.12L110.2 25.85L110.25 25.85C110.38 25.31 110.7 24.83 111.14 24.5C111.59 24.16 112.14 23.99 112.7 24.01C112.94 24.01 113.18 24.04 113.41 24.09L113.41 26.04C113.11 25.95 112.79 25.91 112.47 25.92C112.17 25.91 111.87 25.96 111.59 26.08C111.3 26.19 111.05 26.37 110.84 26.59C110.64 26.81 110.48 27.08 110.39 27.36C110.29 27.65 110.26 27.96 110.29 28.26L110.29 34.3L108.2 34.3L108.2 24.12Z" fill="#282739" fill-opacity="1.000000" fill-rule="nonzero"/>
		<path id="Vector" d="M123.05 31.31C122.77 33.16 120.97 34.43 118.67 34.43C115.7 34.43 113.86 32.44 113.86 29.26C113.86 26.06 115.71 23.99 118.58 23.99C121.4 23.99 123.17 25.93 123.17 29.02L123.17 29.73L115.97 29.73L115.97 29.86C115.94 30.23 115.99 30.61 116.11 30.97C116.24 31.32 116.43 31.65 116.69 31.92C116.95 32.19 117.27 32.41 117.62 32.55C117.96 32.69 118.34 32.76 118.71 32.74C119.21 32.79 119.7 32.68 120.13 32.42C120.55 32.16 120.88 31.77 121.07 31.31L123.05 31.31ZM115.98 28.27L121.08 28.27C121.1 27.93 121.04 27.6 120.93 27.28C120.81 26.96 120.63 26.68 120.39 26.43C120.16 26.19 119.88 26 119.56 25.87C119.25 25.74 118.92 25.68 118.58 25.69C118.24 25.68 117.9 25.75 117.59 25.88C117.27 26.01 116.98 26.2 116.74 26.44C116.5 26.68 116.31 26.96 116.18 27.28C116.05 27.59 115.98 27.93 115.98 28.27L115.98 28.27Z" fill="#282739" fill-opacity="1.000000" fill-rule="nonzero"/>
		<path id="Vector" d="M41.33 12.66L42.22 12.66C42.38 12.67 42.53 12.66 42.68 12.62C42.83 12.57 42.97 12.5 43.09 12.4C43.21 12.3 43.31 12.17 43.37 12.03C43.44 11.89 43.48 11.74 43.49 11.59C43.49 10.97 43.02 10.57 42.23 10.57C42.07 10.54 41.91 10.55 41.76 10.59C41.6 10.64 41.46 10.71 41.33 10.81C41.21 10.9 41.1 11.03 41.02 11.17C40.95 11.3 40.9 11.46 40.88 11.62L39.89 11.62C39.91 11.33 39.99 11.05 40.12 10.79C40.25 10.53 40.43 10.3 40.65 10.12C40.87 9.94 41.13 9.8 41.41 9.72C41.69 9.64 41.98 9.62 42.26 9.65C43.59 9.65 44.52 10.39 44.52 11.46C44.52 11.82 44.4 12.16 44.18 12.44C43.96 12.72 43.65 12.92 43.3 12.99L43.3 13.07C43.71 13.09 44.1 13.27 44.38 13.58C44.66 13.88 44.81 14.28 44.79 14.7C44.76 14.99 44.67 15.28 44.53 15.54C44.38 15.81 44.19 16.04 43.96 16.22C43.72 16.41 43.45 16.54 43.17 16.63C42.88 16.71 42.58 16.73 42.28 16.69C41.99 16.73 41.68 16.71 41.4 16.63C41.11 16.56 40.84 16.42 40.6 16.23C40.37 16.05 40.17 15.82 40.03 15.56C39.88 15.29 39.79 15 39.76 14.71L40.76 14.71C40.82 15.35 41.41 15.76 42.28 15.76C43.15 15.76 43.72 15.3 43.72 14.64C43.72 13.98 43.19 13.57 42.25 13.57L41.33 13.57L41.33 12.66Z" fill="#282739" fill-opacity="1.000000" fill-rule="nonzero"/>
		<path id="Vector" d="M45.93 15.1C45.93 14.19 46.61 13.66 47.81 13.58L49.18 13.51L49.18 13.07C49.18 12.53 48.83 12.23 48.15 12.23C47.59 12.23 47.2 12.44 47.09 12.79L46.12 12.79C46.23 11.92 47.05 11.37 48.19 11.37C49.46 11.37 50.18 12 50.18 13.07L50.18 16.53L49.22 16.53L49.22 15.82L49.14 15.82C48.98 16.07 48.75 16.28 48.48 16.42C48.22 16.56 47.92 16.63 47.62 16.61C47.4 16.64 47.19 16.61 46.99 16.55C46.78 16.48 46.59 16.37 46.44 16.23C46.28 16.09 46.15 15.91 46.06 15.72C45.97 15.52 45.93 15.31 45.93 15.1ZM49.18 14.66L49.18 14.24L47.95 14.32C47.25 14.37 46.93 14.6 46.93 15.05C46.93 15.51 47.33 15.77 47.87 15.77C48.03 15.79 48.19 15.77 48.35 15.72C48.5 15.68 48.64 15.6 48.76 15.5C48.89 15.39 48.99 15.27 49.06 15.12C49.13 14.98 49.17 14.82 49.18 14.66Z" fill="#282739" fill-opacity="1.000000" fill-rule="nonzero"/>
		<path id="Vector" d="M52.83 12.31L52.83 16.53L51.83 16.53L51.83 11.46L55.17 11.46L55.17 12.31L52.83 12.31Z" fill="#282739" fill-opacity="1.000000" fill-rule="nonzero"/>
		<path id="Vector" d="M61.23 14C61.23 15.6 60.41 16.61 59.14 16.61C58.82 16.64 58.51 16.57 58.23 16.42C57.96 16.27 57.73 16.04 57.58 15.76L57.5 15.76L57.5 18.21L56.5 18.21L56.5 11.46L57.46 11.46L57.46 12.3L57.53 12.3C57.69 12.02 57.92 11.78 58.2 11.62C58.48 11.45 58.8 11.37 59.13 11.38C60.41 11.38 61.23 12.39 61.23 14ZM60.2 14C60.2 12.93 59.69 12.28 58.85 12.28C58.01 12.28 57.48 12.94 57.48 14C57.48 15.06 58.01 15.72 58.84 15.72C59.69 15.72 60.2 15.07 60.2 14Z" fill="#282739" fill-opacity="1.000000" fill-rule="nonzero"/>
		<path id="Vector" d="M62.56 18.34L62.56 17.48C62.67 17.5 62.78 17.5 62.89 17.5C63.1 17.52 63.31 17.45 63.48 17.32C63.65 17.19 63.76 17 63.8 16.79L63.88 16.55L62.04 11.46L63.13 11.46L64.4 15.49L64.48 15.49L65.75 11.46L66.81 11.46L64.92 16.74C64.49 17.97 64.01 18.37 62.97 18.37C62.89 18.37 62.65 18.36 62.56 18.34Z" fill="#282739" fill-opacity="1.000000" fill-rule="nonzero"/>
		<path id="Vector" d="M67.59 15.09L68.58 15.09C68.68 15.54 69.1 15.77 69.68 15.77C70.35 15.77 70.76 15.48 70.76 15.02C70.76 14.53 70.39 14.3 69.68 14.3L68.93 14.3L68.93 13.52L69.67 13.52C70.27 13.52 70.58 13.29 70.58 12.87C70.58 12.5 70.28 12.21 69.67 12.21C69.11 12.21 68.7 12.45 68.64 12.85L67.67 12.85C67.75 12.39 68 11.98 68.37 11.7C68.74 11.42 69.21 11.3 69.67 11.37C70.87 11.37 71.56 11.91 71.56 12.77C71.57 13 71.49 13.24 71.35 13.43C71.2 13.62 71 13.75 70.76 13.8L70.76 13.88C71.04 13.92 71.29 14.05 71.48 14.26C71.66 14.47 71.76 14.74 71.75 15.02C71.75 15.99 70.93 16.62 69.68 16.62C68.58 16.62 67.68 16.12 67.59 15.09Z" fill="#282739" fill-opacity="1.000000" fill-rule="nonzero"/>
		<path id="Vector" d="M73.19 16.53L73.19 11.46L74.19 11.46L74.19 14.95L74.26 14.95L76.6 11.46L77.59 11.46L77.59 16.53L76.6 16.53L76.6 13.03L76.52 13.03L74.19 16.53L73.19 16.53Z" fill="#282739" fill-opacity="1.000000" fill-rule="nonzero"/>
		<path id="Vector" d="M83.05 12.31L81.45 12.31L81.45 16.53L80.45 16.53L80.45 12.31L78.86 12.31L78.86 11.46L83.05 11.46L83.05 12.31Z" fill="#282739" fill-opacity="1.000000" fill-rule="nonzero"/>
		<path id="Vector" d="M88.43 15.16C88.3 15.62 88 16.03 87.6 16.29C87.2 16.56 86.72 16.68 86.24 16.63C85.9 16.64 85.57 16.57 85.27 16.44C84.96 16.31 84.69 16.11 84.46 15.86C84.24 15.61 84.07 15.32 83.98 15C83.88 14.68 83.85 14.34 83.9 14.01C83.85 13.68 83.88 13.34 83.98 13.02C84.08 12.7 84.24 12.41 84.46 12.16C84.68 11.91 84.96 11.7 85.26 11.57C85.57 11.43 85.9 11.36 86.23 11.37C87.64 11.37 88.49 12.33 88.49 13.92L88.49 14.27L84.92 14.27L84.92 14.32C84.9 14.51 84.93 14.7 84.99 14.87C85.05 15.05 85.14 15.21 85.27 15.35C85.4 15.49 85.55 15.59 85.72 15.67C85.9 15.74 86.08 15.78 86.27 15.78C86.51 15.8 86.75 15.76 86.96 15.65C87.18 15.54 87.35 15.37 87.47 15.16L88.43 15.16ZM84.92 13.53L87.48 13.53C87.49 13.36 87.46 13.19 87.41 13.03C87.35 12.87 87.26 12.72 87.14 12.6C87.03 12.47 86.88 12.38 86.73 12.31C86.57 12.24 86.4 12.21 86.23 12.22C86.06 12.21 85.88 12.25 85.72 12.31C85.56 12.38 85.42 12.47 85.3 12.6C85.17 12.72 85.08 12.86 85.01 13.02C84.95 13.18 84.92 13.36 84.92 13.53L84.92 13.53Z" fill="#282739" fill-opacity="1.000000" fill-rule="nonzero"/>
		<path id="Vector" d="M92.67 11.46L94.96 11.46C95.95 11.46 96.53 11.97 96.53 12.75C96.53 13 96.45 13.24 96.29 13.44C96.14 13.63 95.92 13.77 95.67 13.82L95.67 13.9C95.97 13.92 96.25 14.05 96.45 14.27C96.65 14.49 96.76 14.77 96.76 15.07C96.76 15.95 96.09 16.53 94.98 16.53L92.67 16.53L92.67 11.46ZM93.66 12.23L93.66 13.54L94.65 13.54C95.26 13.54 95.55 13.31 95.55 12.88C95.55 12.49 95.3 12.23 94.77 12.23L93.66 12.23ZM93.66 14.28L93.66 15.76L94.85 15.76C95.44 15.76 95.76 15.5 95.76 15.02C95.76 14.52 95.4 14.28 94.72 14.28L93.66 14.28Z" fill="#282739" fill-opacity="1.000000" fill-rule="nonzero"/>
	</g>
</svg>
