<svg width="10.163025" height="8.145081" viewBox="0 0 10.163 8.14508" fill="none" xmlns="http://www.w3.org/2000/svg" xmlns:xlink="http://www.w3.org/1999/xlink">
	<desc>
			Created with Pixso.
	</desc>
	<defs/>
	<path id="check" d="M9.76 0.29L8.94 0.29C8.83 0.29 8.72 0.35 8.65 0.44L3.82 6.56L1.5 3.62C1.47 3.58 1.42 3.54 1.37 3.52C1.32 3.49 1.26 3.48 1.21 3.48L0.39 3.48C0.31 3.48 0.27 3.57 0.32 3.63L3.52 7.7C3.67 7.89 3.96 7.89 4.11 7.7L9.84 0.45C9.89 0.39 9.84 0.29 9.76 0.29Z" fill="#6F73EE" fill-opacity="1.000000" fill-rule="evenodd"/>
	<path id="check" d="M9.76 0L8.94 0Q8.87 0 8.79 0.01Q8.72 0.03 8.65 0.06Q8.58 0.1 8.52 0.15Q8.46 0.19 8.41 0.25L3.82 6.07L1.74 3.44Q1.69 3.38 1.63 3.33Q1.57 3.28 1.5 3.25Q1.43 3.21 1.36 3.2Q1.29 3.18 1.21 3.18L0.39 3.18Q0.33 3.18 0.27 3.2Q0.22 3.21 0.17 3.24Q0.13 3.27 0.1 3.31Q0.06 3.35 0.03 3.4Q0.01 3.45 0 3.51Q-0.01 3.56 0 3.61Q0 3.66 0.02 3.71Q0.04 3.77 0.08 3.82L3.29 7.88Q3.34 7.95 3.41 8Q3.47 8.05 3.53 8.08Q3.6 8.11 3.66 8.12Q3.74 8.14 3.82 8.14Q3.9 8.14 3.97 8.12Q4.04 8.11 4.11 8.08Q4.17 8.05 4.23 8Q4.3 7.95 4.35 7.88L10.07 0.63Q10.11 0.59 10.13 0.54Q10.15 0.49 10.16 0.42Q10.16 0.37 10.15 0.32Q10.14 0.27 10.12 0.22Q10.09 0.17 10.06 0.13Q10.02 0.09 9.98 0.06Q9.93 0.03 9.88 0.01Q9.83 0 9.76 0ZM4.01 6.32L3.82 6.56L3.63 6.32L1.5 3.62C1.47 3.58 1.42 3.54 1.37 3.52C1.32 3.49 1.26 3.48 1.21 3.48L0.39 3.48C0.31 3.48 0.27 3.57 0.32 3.63L0.43 3.78L0.43 3.78L3.52 7.7C3.67 7.89 3.96 7.89 4.11 7.7L9.72 0.59L9.72 0.59L9.84 0.45C9.89 0.39 9.84 0.29 9.76 0.29L8.94 0.29C8.83 0.29 8.72 0.35 8.65 0.44L4.01 6.32Z" fill="#6F73EE" fill-opacity="1.000000" fill-rule="evenodd"/>
</svg>
