<svg width="151.455200" height="45.000000" viewBox="0 0 151.455 45" fill="none" xmlns="http://www.w3.org/2000/svg" xmlns:xlink="http://www.w3.org/1999/xlink">
	<desc>
			Created with Pixso.
	</desc>
	<defs>
		<clipPath id="clip1_16009">
			<rect id="Badge" rx="0.000000" width="151.105225" height="44.650002" transform="translate(0.175000 0.175000)" fill="white" fill-opacity="0"/>
		</clipPath>
		<linearGradient x1="24.626741" y1="9.861660" x2="5.840359" y2="28.648033" id="paint_linear_34_78_0" gradientUnits="userSpaceOnUse">
			<stop stop-color="#00A0FF"/>
			<stop offset="0.006574" stop-color="#00A1FF"/>
			<stop offset="0.260100" stop-color="#00BEFF"/>
			<stop offset="0.512200" stop-color="#00D2FF"/>
			<stop offset="0.760400" stop-color="#00DFFF"/>
			<stop offset="1.000000" stop-color="#00E3FF"/>
		</linearGradient>
		<linearGradient x1="38.098297" y1="22.501503" x2="11.012104" y2="22.501503" id="paint_linear_34_81_0" gradientUnits="userSpaceOnUse">
			<stop stop-color="#FFE000"/>
			<stop offset="0.408700" stop-color="#FFBD00"/>
			<stop offset="0.775400" stop-color="#FFA500"/>
			<stop offset="1.000000" stop-color="#FF9C00"/>
		</linearGradient>
		<linearGradient x1="28.015438" y1="25.070248" x2="2.539726" y2="50.545956" id="paint_linear_34_84_0" gradientUnits="userSpaceOnUse">
			<stop stop-color="#FF3A44"/>
			<stop offset="1.000000" stop-color="#C31162"/>
		</linearGradient>
		<linearGradient x1="8.392630" y1="0.309267" x2="19.768557" y2="11.685193" id="paint_linear_34_87_0" gradientUnits="userSpaceOnUse">
			<stop stop-color="#32A071"/>
			<stop offset="0.068500" stop-color="#2DA771"/>
			<stop offset="0.476200" stop-color="#15CF74"/>
			<stop offset="0.800900" stop-color="#06E775"/>
			<stop offset="1.000000" stop-color="#00F076"/>
		</linearGradient>
		<linearGradient x1="38.098206" y1="22.501631" x2="11.012207" y2="22.501631" id="paint_linear_34_91_0" gradientUnits="userSpaceOnUse">
			<stop stop-color="#CCB300"/>
			<stop offset="0.408700" stop-color="#CC9700"/>
			<stop offset="0.775400" stop-color="#CC8400"/>
			<stop offset="1.000000" stop-color="#CC7D00"/>
		</linearGradient>
		<linearGradient x1="28.015347" y1="25.070257" x2="2.539625" y2="50.545967" id="paint_linear_34_94_0" gradientUnits="userSpaceOnUse">
			<stop stop-color="#CC2E36"/>
			<stop offset="1.000000" stop-color="#9C0E4E"/>
		</linearGradient>
		<linearGradient x1="24.626778" y1="9.861662" x2="5.840342" y2="28.648035" id="paint_linear_34_98_0" gradientUnits="userSpaceOnUse">
			<stop stop-color="#008DE0"/>
			<stop offset="0.006574" stop-color="#008DE0"/>
			<stop offset="0.260100" stop-color="#00A7E0"/>
			<stop offset="0.512200" stop-color="#00B8E0"/>
			<stop offset="0.760400" stop-color="#00C4E0"/>
			<stop offset="1.000000" stop-color="#00C7E0"/>
		</linearGradient>
		<linearGradient x1="28.015825" y1="25.070240" x2="2.539352" y2="50.546093" id="paint_linear_34_101_0" gradientUnits="userSpaceOnUse">
			<stop stop-color="#E0333C"/>
			<stop offset="1.000000" stop-color="#AB0F56"/>
		</linearGradient>
		<linearGradient x1="38.098270" y1="22.501579" x2="11.012043" y2="22.501579" id="paint_linear_34_105_0" gradientUnits="userSpaceOnUse">
			<stop stop-color="#E0C500"/>
			<stop offset="0.408700" stop-color="#E0A600"/>
			<stop offset="0.775400" stop-color="#E09100"/>
			<stop offset="1.000000" stop-color="#E08900"/>
		</linearGradient>
		<linearGradient x1="38.098278" y1="22.501608" x2="11.012096" y2="22.501608" id="paint_linear_34_109_0" gradientUnits="userSpaceOnUse">
			<stop stop-color="#FFE840"/>
			<stop offset="0.408700" stop-color="#FFCE40"/>
			<stop offset="0.775400" stop-color="#FFBC40"/>
			<stop offset="1.000000" stop-color="#FFB540"/>
		</linearGradient>
		<linearGradient x1="24.626787" y1="9.861465" x2="5.840353" y2="28.647852" id="paint_linear_34_113_0" gradientUnits="userSpaceOnUse">
			<stop stop-color="#40B8FF"/>
			<stop offset="0.006574" stop-color="#40B9FF"/>
			<stop offset="0.260100" stop-color="#40CEFF"/>
			<stop offset="0.512200" stop-color="#40DDFF"/>
			<stop offset="0.760400" stop-color="#40E7FF"/>
			<stop offset="1.000000" stop-color="#40EAFF"/>
		</linearGradient>
		<linearGradient x1="8.392544" y1="0.309179" x2="19.768480" y2="11.685109" id="paint_linear_34_117_0" gradientUnits="userSpaceOnUse">
			<stop stop-color="#65B895"/>
			<stop offset="0.068500" stop-color="#62BD95"/>
			<stop offset="0.476200" stop-color="#50DB97"/>
			<stop offset="0.800900" stop-color="#44ED98"/>
			<stop offset="1.000000" stop-color="#40F498"/>
		</linearGradient>
	</defs>
	<rect id="Badge" rx="0.000000" width="151.105225" height="44.650002" transform="translate(0.175000 0.175000)" fill="#FFFFFF" fill-opacity="0"/>
	<g clip-path="url(#clip1_16009)">
		<path id="path13552" d="M145.74 44.88L5.82 44.88C2.74 44.88 0.22 42.36 0.22 39.29L0.22 5.7C0.22 2.63 2.74 0.11 5.82 0.11L145.74 0.11C148.82 0.11 151.34 2.63 151.34 5.7L151.34 39.29C151.34 42.36 148.82 44.88 145.74 44.88Z" fill="#FFFFFF" fill-opacity="1.000000" fill-rule="nonzero"/>
		<path id="path13556" d="M119.92 33.69L122.01 33.69L122.01 19.7L119.92 19.7L119.92 33.69ZM138.74 24.74L136.34 30.8L136.27 30.8L133.79 24.74L131.54 24.74L135.26 33.22L133.14 37.93L135.32 37.93L141.06 24.74L138.74 24.74ZM126.89 32.1C126.21 32.1 125.25 31.76 125.25 30.91C125.25 29.83 126.44 29.42 127.47 29.42C128.39 29.42 128.82 29.61 129.38 29.89C129.21 31.18 128.1 32.1 126.89 32.1ZM127.14 24.43C125.63 24.43 124.07 25.1 123.42 26.57L125.27 27.35C125.67 26.57 126.41 26.32 127.18 26.32C128.26 26.32 129.36 26.97 129.38 28.12L129.38 28.26C129 28.05 128.19 27.72 127.2 27.72C125.2 27.72 123.16 28.82 123.16 30.88C123.16 32.75 124.8 33.95 126.64 33.95C128.04 33.95 128.82 33.32 129.3 32.59L129.38 32.59L129.38 33.67L131.39 33.67L131.39 28.3C131.39 25.82 129.54 24.43 127.14 24.43ZM114.24 26.44L111.26 26.44L111.26 21.64L114.24 21.64C115.8 21.64 116.68 22.94 116.68 24.04C116.68 25.13 115.8 26.44 114.24 26.44ZM114.18 19.7L109.18 19.7L109.18 33.69L111.26 33.69L111.26 28.39L114.18 28.39C116.5 28.39 118.77 26.71 118.77 24.04C118.77 21.37 116.5 19.7 114.18 19.7ZM86.89 32.1C85.45 32.1 84.24 30.89 84.24 29.23C84.24 27.56 85.45 26.33 86.89 26.33C88.31 26.33 89.43 27.56 89.43 29.23C89.43 30.89 88.31 32.1 86.89 32.1ZM89.29 25.52L89.22 25.52C88.75 24.96 87.84 24.46 86.71 24.46C84.33 24.46 82.15 26.55 82.15 29.23C82.15 31.9 84.33 33.98 86.71 33.98C87.84 33.98 88.75 33.47 89.22 32.9L89.29 32.9L89.29 33.58C89.29 35.4 88.31 36.38 86.74 36.38C85.46 36.38 84.67 35.46 84.35 34.68L82.52 35.44C83.05 36.7 84.44 38.25 86.74 38.25C89.2 38.25 91.27 36.81 91.27 33.29L91.27 24.74L89.29 24.74L89.29 25.52ZM92.71 33.69L94.81 33.69L94.81 19.69L92.71 19.69L92.71 33.69ZM97.89 29.07C97.84 27.23 99.31 26.3 100.38 26.3C101.21 26.3 101.91 26.71 102.15 27.31L97.89 29.07ZM104.38 27.49C103.99 26.42 102.78 24.46 100.31 24.46C97.85 24.46 95.82 26.39 95.82 29.22C95.82 31.89 97.84 33.98 100.54 33.98C102.72 33.98 103.99 32.64 104.51 31.87L102.89 30.79C102.34 31.58 101.6 32.1 100.54 32.1C99.48 32.1 98.72 31.62 98.23 30.66L104.6 28.03L104.38 27.49ZM53.66 25.92L53.66 27.94L58.5 27.94C58.35 29.07 57.97 29.9 57.4 30.48C56.69 31.18 55.59 31.96 53.66 31.96C50.69 31.96 48.36 29.56 48.36 26.58C48.36 23.61 50.69 21.21 53.66 21.21C55.27 21.21 56.44 21.84 57.31 22.65L58.73 21.23C57.52 20.07 55.92 19.19 53.66 19.19C49.59 19.19 46.16 22.51 46.16 26.58C46.16 30.66 49.59 33.98 53.66 33.98C55.86 33.98 57.52 33.26 58.82 31.9C60.16 30.57 60.57 28.69 60.57 27.18C60.57 26.71 60.53 26.28 60.46 25.92L53.66 25.92ZM66.07 32.1C64.62 32.1 63.38 30.91 63.38 29.22C63.38 27.5 64.62 26.33 66.07 26.33C67.51 26.33 68.75 27.5 68.75 29.22C68.75 30.91 67.51 32.1 66.07 32.1ZM66.07 24.46C63.43 24.46 61.29 26.46 61.29 29.22C61.29 31.96 63.43 33.98 66.07 33.98C68.7 33.98 70.84 31.96 70.84 29.22C70.84 26.46 68.7 24.46 66.07 24.46ZM76.49 32.1C75.05 32.1 73.8 30.91 73.8 29.22C73.8 27.5 75.05 26.33 76.49 26.33C77.93 26.33 79.18 27.5 79.18 29.22C79.18 30.91 77.93 32.1 76.49 32.1ZM76.49 24.46C73.86 24.46 71.71 26.46 71.71 29.22C71.71 31.96 73.86 33.98 76.49 33.98C79.12 33.98 81.27 31.96 81.27 29.22C81.27 26.46 79.12 24.46 76.49 24.46Z" fill="#282739" fill-opacity="1.000000" fill-rule="nonzero"/>
		<path id="path13580" d="M11.98 36.36L11.9 36.28C11.57 35.94 11.38 35.4 11.38 34.71L11.38 34.87L11.38 10.12C11.38 10.12 11.38 10.11 11.38 10.11C11.38 10.11 11.38 10.12 11.38 10.12L11.38 10.28C11.38 9.53 11.61 8.97 11.98 8.63L25.85 22.5L11.98 36.36ZM11.38 10.11C11.38 10.05 11.38 9.99 11.39 9.93C11.38 9.99 11.38 10.05 11.38 10.11ZM11.39 9.93C11.39 9.93 11.39 9.93 11.39 9.92C11.39 9.93 11.39 9.93 11.39 9.93ZM11.39 9.92C11.39 9.92 11.39 9.92 11.39 9.92C11.39 9.92 11.39 9.92 11.39 9.92Z" fill="url(#paint_linear_34_78_0)" fill-opacity="1.000000" fill-rule="nonzero"/>
		<path id="path13600" d="M30.47 27.28L30.58 27.22L36.06 24.11C36.58 23.82 36.93 23.46 37.1 23.07C36.93 23.46 36.58 23.82 36.06 24.11L30.58 27.22L30.47 27.28ZM30.48 27.12L25.85 22.5L30.47 17.87L36.06 21.04C36.77 21.45 37.16 21.97 37.23 22.5C37.23 22.5 37.23 22.5 37.23 22.5C37.16 23.03 36.77 23.55 36.06 23.95L30.48 27.12Z" fill="url(#paint_linear_34_81_0)" fill-opacity="1.000000" fill-rule="nonzero"/>
		<path id="path13616" d="M12.97 36.89C12.59 36.89 12.25 36.77 11.98 36.53L11.98 36.53C12.25 36.77 12.59 36.89 12.97 36.89C13.01 36.89 13.04 36.89 13.08 36.89C13.04 36.89 13.01 36.89 12.97 36.89ZM12.97 36.73C12.59 36.73 12.25 36.6 11.98 36.36L11.98 36.36L25.85 22.5L30.48 27.12L14.23 36.35C13.78 36.61 13.35 36.73 12.97 36.73ZM11.98 36.53C11.96 36.5 11.93 36.48 11.91 36.45L11.98 36.53Z" fill="url(#paint_linear_34_84_0)" fill-opacity="1.000000" fill-rule="nonzero"/>
		<path id="path13638" d="M25.85 22.5L11.98 8.63C12.25 8.39 12.58 8.26 12.97 8.26C13.35 8.26 13.78 8.38 14.23 8.64L30.47 17.87L25.85 22.5ZM30.58 17.77L14.23 8.48C13.78 8.22 13.35 8.1 12.97 8.1C12.97 8.1 12.97 8.1 12.97 8.1C12.97 8.1 12.97 8.1 12.97 8.1C13.35 8.1 13.78 8.22 14.23 8.48L30.58 17.77Z" fill="url(#paint_linear_34_87_0)" fill-opacity="1.000000" fill-rule="nonzero"/>
		<path id="path13640" d="M13.08 36.89C13.43 36.87 13.82 36.75 14.23 36.52L30.47 27.28L14.23 36.52C13.82 36.75 13.43 36.87 13.08 36.89ZM11.98 36.53L11.98 36.53C11.98 36.53 11.98 36.53 11.98 36.53ZM11.91 36.45L11.9 36.45L11.9 36.45C11.9 36.45 11.91 36.45 11.91 36.45Z" fill="#FFFFFF" fill-opacity="1.000000" fill-rule="nonzero"/>
		<path id="path13660" d="M30.47 27.28L30.58 27.22L30.47 27.28Z" fill="url(#paint_linear_34_91_0)" fill-opacity="1.000000" fill-rule="nonzero"/>
		<path id="path13676" d="M12.97 36.89C12.59 36.89 12.25 36.77 11.98 36.53L11.98 36.53C11.98 36.53 11.98 36.53 11.98 36.53L11.91 36.45C11.91 36.45 11.9 36.45 11.9 36.45L11.98 36.36C12.25 36.6 12.59 36.73 12.97 36.73C13.35 36.73 13.78 36.61 14.23 36.35L30.48 27.12L30.58 27.22L30.47 27.28L14.23 36.52C13.82 36.75 13.43 36.87 13.08 36.89C13.04 36.89 13.01 36.89 12.97 36.89Z" fill="url(#paint_linear_34_94_0)" fill-opacity="1.000000" fill-rule="nonzero"/>
		<path id="path13678" d="M11.9 36.45C11.57 36.1 11.38 35.57 11.38 34.88L11.38 34.87C11.38 35.57 11.57 36.1 11.9 36.45L11.9 36.45Z" fill="#FFFFFF" fill-opacity="1.000000" fill-rule="nonzero"/>
		<path id="path13702" d="M11.9 36.45C11.57 36.1 11.38 35.57 11.38 34.87L11.38 34.71C11.38 35.4 11.57 35.94 11.9 36.28L11.98 36.36L11.9 36.45Z" fill="url(#paint_linear_34_98_0)" fill-opacity="1.000000" fill-rule="nonzero"/>
		<path id="path13718" d="M11.9 36.45L11.98 36.36L11.98 36.36L11.9 36.45Z" fill="url(#paint_linear_34_101_0)" fill-opacity="1.000000" fill-rule="nonzero"/>
		<path id="path13720" d="M37.1 23.07C37.19 22.89 37.23 22.69 37.23 22.5C37.23 22.5 37.23 22.5 37.23 22.5C37.23 22.69 37.19 22.89 37.1 23.07Z" fill="#FFFFFF" fill-opacity="1.000000" fill-rule="nonzero"/>
		<path id="path13740" d="M30.58 27.22L30.48 27.12L36.06 23.95C36.77 23.55 37.16 23.03 37.23 22.5C37.23 22.69 37.19 22.89 37.1 23.07C36.93 23.46 36.58 23.82 36.06 24.11L30.58 27.22Z" fill="url(#paint_linear_34_105_0)" fill-opacity="1.000000" fill-rule="nonzero"/>
		<path id="path13742" d="M37.23 22.5L37.23 22.5C37.23 21.91 36.84 21.32 36.06 20.88L30.58 17.77L30.58 17.77L30.58 17.77L36.06 20.88C36.84 21.32 37.23 21.91 37.23 22.5Z" fill="#282739" fill-opacity="1.000000" fill-rule="nonzero"/>
		<path id="path13762" d="M37.23 22.5C37.16 21.97 36.77 21.45 36.06 21.04L30.47 17.87L30.58 17.77L30.58 17.77L36.06 20.88C36.84 21.32 37.23 21.91 37.23 22.5Z" fill="url(#paint_linear_34_109_0)" fill-opacity="1.000000" fill-rule="nonzero"/>
		<path id="path13764" d="M11.38 10.11C11.38 10.11 11.38 10.11 11.38 10.11C11.38 10.11 11.38 10.11 11.38 10.11ZM11.39 9.93C11.39 9.93 11.39 9.93 11.39 9.93C11.39 9.93 11.39 9.93 11.39 9.93ZM11.39 9.92C11.39 9.92 11.39 9.92 11.39 9.92C11.39 9.92 11.39 9.92 11.39 9.92ZM11.39 9.92C11.45 8.77 12.08 8.1 12.96 8.1C12.58 8.1 12.24 8.23 11.98 8.46L11.98 8.46L11.98 8.47C11.95 8.49 11.93 8.52 11.9 8.54C11.61 8.86 11.42 9.32 11.39 9.92Z" fill="#282739" fill-opacity="1.000000" fill-rule="nonzero"/>
		<path id="path13788" d="M11.38 10.28L11.38 10.12C11.38 10.12 11.38 10.11 11.38 10.11C11.38 10.11 11.38 10.11 11.38 10.11C11.38 10.05 11.38 9.99 11.39 9.93C11.39 9.93 11.39 9.93 11.39 9.93C11.39 9.93 11.39 9.93 11.39 9.92C11.39 9.92 11.39 9.92 11.39 9.92C11.39 9.92 11.39 9.92 11.39 9.92C11.42 9.32 11.61 8.86 11.9 8.54L11.98 8.63C11.61 8.97 11.38 9.53 11.38 10.28ZM11.98 8.47L11.98 8.46C11.98 8.46 11.98 8.47 11.98 8.47Z" fill="url(#paint_linear_34_113_0)" fill-opacity="1.000000" fill-rule="nonzero"/>
		<path id="path13790" d="M12.96 8.1C12.96 8.1 12.96 8.1 12.97 8.1C12.96 8.1 12.96 8.1 12.96 8.1Z" fill="#282739" fill-opacity="1.000000" fill-rule="nonzero"/>
		<path id="path13812" d="M30.47 17.87L14.23 8.64C13.78 8.38 13.35 8.26 12.97 8.26C12.58 8.26 12.25 8.39 11.98 8.63L11.9 8.54C11.93 8.52 11.95 8.49 11.98 8.47C11.98 8.47 11.98 8.46 11.98 8.46C12.24 8.23 12.58 8.1 12.96 8.1C12.96 8.1 12.96 8.1 12.97 8.1C12.97 8.1 12.97 8.1 12.97 8.1C13.35 8.1 13.78 8.22 14.23 8.48L30.58 17.77L30.58 17.77L30.47 17.87Z" fill="url(#paint_linear_34_117_0)" fill-opacity="1.000000" fill-rule="nonzero"/>
		<path id="path13814" d="M48.91 11.26C48.92 12.33 48.71 13.18 48.27 13.83L51.67 13.83L51.67 8.77L48.91 8.77L48.91 11.26ZM47.36 16.08L46.54 16.08L46.54 13.83L47.19 13.83C47.77 13.33 48.06 12.48 48.05 11.26L48.05 7.94L52.53 7.94L52.53 13.83L53.28 13.83L53.28 16.08L52.46 16.08L52.46 14.66L47.36 14.66L47.36 16.08Z" fill="#282739" fill-opacity="1.000000" fill-rule="nonzero"/>
		<path id="path13816" d="M48.91 11.26L48.8 11.27L48.8 11.36C48.8 12.36 48.59 13.16 48.18 13.77L48.06 13.95L51.78 13.95L51.78 8.66L48.8 8.66L48.8 11.26L48.8 11.27L48.91 11.26L49.02 11.26L49.02 8.88L51.56 8.88L51.56 13.72L48.27 13.72L48.27 13.83L48.36 13.9C48.8 13.24 49.02 12.39 49.02 11.36L49.02 11.26L48.91 11.26L49.02 11.26L48.91 11.26ZM47.36 16.08L47.36 15.97L46.65 15.97L46.65 13.95L47.19 13.95L47.23 13.95L47.27 13.92C47.87 13.4 48.16 12.53 48.16 11.34L48.16 11.26L48.16 11.26L48.16 8.05L52.42 8.05L52.42 13.95L53.17 13.95L53.17 15.97L52.57 15.97L52.57 14.66L52.57 14.55L47.25 14.55L47.25 16.08L47.36 16.08L47.36 15.97L47.36 16.08L47.47 16.08L47.47 14.77L52.34 14.77L52.34 16.08L52.34 16.2L53.28 16.2L53.39 16.2L53.39 13.72L52.64 13.72L52.64 7.83L47.93 7.83L47.93 11.26L47.93 11.26L47.94 11.34C47.93 12.5 47.65 13.29 47.12 13.75L47.19 13.83L47.19 13.72L46.54 13.72L46.42 13.72L46.42 16.2L47.36 16.2L47.47 16.2L47.47 16.08L47.36 16.08Z" fill="#282739" fill-opacity="1.000000" fill-rule="nonzero"/>
		<path id="path13818" d="M55.72 13.23C56.22 13.73 56.83 13.98 57.55 13.98C58.27 13.98 58.88 13.73 59.37 13.23C59.87 12.73 60.12 12.08 60.12 11.3C60.12 10.52 59.87 9.88 59.37 9.37C58.88 8.87 58.27 8.62 57.55 8.62C56.83 8.62 56.22 8.87 55.72 9.37C55.23 9.88 54.98 10.52 54.98 11.3C54.98 12.08 55.23 12.73 55.72 13.23ZM60.01 13.79C59.35 14.47 58.53 14.81 57.55 14.81C56.57 14.81 55.75 14.47 55.09 13.79C54.43 13.11 54.1 12.28 54.1 11.3C54.1 10.32 54.43 9.49 55.09 8.81C55.75 8.13 56.57 7.79 57.55 7.79C58.52 7.79 59.34 8.13 60.01 8.82C60.67 9.5 61 10.33 61 11.3C61 12.28 60.67 13.11 60.01 13.79Z" fill="#282739" fill-opacity="1.000000" fill-rule="nonzero"/>
		<path id="path13820" d="M55.72 13.23L55.64 13.31C56.16 13.83 56.8 14.1 57.55 14.1C58.29 14.1 58.94 13.83 59.45 13.31C59.97 12.78 60.23 12.11 60.23 11.3C60.23 10.5 59.97 9.82 59.45 9.29C58.94 8.77 58.29 8.51 57.55 8.51C56.8 8.51 56.16 8.77 55.64 9.29C55.13 9.82 54.87 10.5 54.87 11.3C54.87 12.11 55.13 12.78 55.64 13.31L55.72 13.23L55.8 13.15C55.33 12.67 55.09 12.06 55.09 11.3C55.09 10.54 55.33 9.94 55.8 9.45L55.8 9.45C56.28 8.97 56.86 8.73 57.55 8.73C58.24 8.73 58.82 8.97 59.29 9.45L59.3 9.45L59.29 9.45C59.77 9.94 60.01 10.54 60.01 11.3C60.01 12.06 59.77 12.67 59.29 13.15C58.82 13.63 58.24 13.87 57.55 13.87C56.86 13.87 56.28 13.63 55.8 13.15L55.72 13.23ZM60.01 13.79L59.93 13.71C59.29 14.37 58.5 14.7 57.55 14.7C56.59 14.7 55.81 14.37 55.17 13.71C54.53 13.05 54.21 12.26 54.21 11.3C54.21 10.34 54.53 9.55 55.17 8.89C55.81 8.23 56.59 7.91 57.55 7.9C58.5 7.91 59.28 8.23 59.93 8.89C60.57 9.56 60.89 10.35 60.89 11.3C60.89 12.26 60.57 13.05 59.93 13.71L60.01 13.79L60.09 13.87C60.77 13.17 61.11 12.31 61.11 11.3C61.11 10.3 60.77 9.44 60.09 8.74C59.41 8.03 58.55 7.68 57.55 7.68C56.54 7.68 55.68 8.03 55.01 8.73L55.01 8.73C54.33 9.43 53.98 10.29 53.99 11.3C53.98 12.31 54.33 13.17 55.01 13.87L55.01 13.87C55.68 14.57 56.54 14.92 57.55 14.92C58.56 14.92 59.41 14.57 60.09 13.87L60.01 13.79Z" fill="#282739" fill-opacity="1.000000" fill-rule="nonzero"/>
		<path id="path13822" d="M65.35 14.81C64.36 14.81 63.53 14.47 62.86 13.81C62.19 13.14 61.86 12.3 61.86 11.3C61.86 10.3 62.19 9.47 62.86 8.8C63.53 8.13 64.36 7.79 65.35 7.79C66.36 7.79 67.18 8.16 67.81 8.89L67.21 9.47C66.76 8.9 66.13 8.62 65.35 8.62C64.61 8.62 63.99 8.87 63.49 9.36C62.99 9.85 62.74 10.5 62.74 11.3C62.74 12.1 62.99 12.75 63.49 13.24C63.99 13.74 64.61 13.98 65.35 13.98C66.15 13.98 66.84 13.66 67.41 13.01L68.01 13.61C67.7 13.98 67.32 14.27 66.85 14.49C66.39 14.7 65.89 14.81 65.35 14.81Z" fill="#282739" fill-opacity="1.000000" fill-rule="nonzero"/>
		<path id="path13824" d="M65.35 14.81L65.35 14.7C64.38 14.7 63.59 14.37 62.94 13.73C62.29 13.08 61.97 12.28 61.97 11.3C61.97 10.33 62.29 9.53 62.94 8.88C63.59 8.23 64.38 7.91 65.35 7.9C66.33 7.91 67.11 8.26 67.73 8.96L67.81 8.89L67.73 8.81L67.13 9.39L67.21 9.47L67.3 9.4C66.82 8.81 66.16 8.5 65.35 8.51C64.59 8.51 63.94 8.77 63.41 9.28C62.89 9.8 62.62 10.48 62.62 11.3C62.62 12.12 62.89 12.81 63.41 13.32C63.94 13.84 64.59 14.1 65.35 14.1C66.18 14.1 66.91 13.75 67.49 13.08L67.41 13.01L67.33 13.09L67.93 13.69L68.01 13.61L67.92 13.54C67.63 13.89 67.26 14.17 66.81 14.38C66.36 14.59 65.87 14.7 65.35 14.7L65.35 14.81L65.35 14.92C65.9 14.92 66.42 14.81 66.9 14.59C67.38 14.37 67.78 14.06 68.1 13.68L68.16 13.6L67.49 12.93L67.4 12.84L67.32 12.93C66.77 13.56 66.12 13.87 65.35 13.87C64.64 13.87 64.05 13.64 63.57 13.16L63.57 13.16C63.09 12.69 62.85 12.08 62.85 11.3C62.85 10.52 63.09 9.91 63.57 9.44L63.57 9.44C64.05 8.97 64.64 8.73 65.35 8.73C66.11 8.73 66.69 9 67.12 9.54L67.2 9.64L67.89 8.97L67.97 8.9L67.9 8.82C67.25 8.06 66.38 7.68 65.35 7.68C64.33 7.68 63.47 8.03 62.78 8.72C62.09 9.41 61.74 10.28 61.74 11.3C61.74 12.33 62.09 13.2 62.78 13.88C63.47 14.57 64.33 14.92 65.35 14.92L65.35 14.81Z" fill="#282739" fill-opacity="1.000000" fill-rule="nonzero"/>
		<path id="path13826" d="M71.5 14.66L70.64 14.66L70.64 8.77L68.76 8.77L68.76 7.94L73.38 7.94L73.38 8.77L71.5 8.77L71.5 14.66Z" fill="#282739" fill-opacity="1.000000" fill-rule="nonzero"/>
		<path id="path13828" d="M71.5 14.66L71.5 14.55L70.75 14.55L70.75 8.66L68.87 8.66L68.87 8.05L73.26 8.05L73.26 8.66L71.39 8.66L71.39 14.66L71.5 14.66L71.5 14.55L71.5 14.66L71.61 14.66L71.61 8.88L73.49 8.88L73.49 7.94L73.49 7.83L68.65 7.83L68.65 8.77L68.65 8.88L70.52 8.88L70.52 14.77L71.5 14.77L71.61 14.77L71.61 14.66L71.5 14.66Z" fill="#282739" fill-opacity="1.000000" fill-rule="nonzero"/>
		<path id="path13830" d="M75.25 12.03L77.48 12.03L76.38 9L76.35 9L75.25 12.03ZM73.35 14.66L75.88 7.94L76.85 7.94L79.39 14.66L78.43 14.66L77.78 12.84L74.96 12.84L74.3 14.66L73.35 14.66Z" fill="#282739" fill-opacity="1.000000" fill-rule="nonzero"/>
		<path id="path13832" d="M75.25 12.03L75.25 12.14L77.64 12.14L76.46 8.89L76.35 8.89L76.27 8.89L75.09 12.14L75.25 12.14L75.25 12.03L75.36 12.07L76.45 9.04L76.35 9L76.35 9.11L76.38 9.11L76.38 9L76.28 9.04L77.32 11.92L75.25 11.92L75.25 12.03L75.36 12.07L75.25 12.03ZM73.35 14.66L73.45 14.7L75.96 8.05L76.78 8.05L79.22 14.55L78.51 14.55L77.86 12.73L74.88 12.73L74.22 14.55L73.35 14.55L73.35 14.66L73.45 14.7L73.35 14.66L73.35 14.77L74.3 14.77L74.38 14.77L75.04 12.95L77.7 12.95L78.35 14.77L79.39 14.77L79.55 14.77L76.93 7.83L75.88 7.83L75.8 7.83L73.18 14.77L73.35 14.77L73.35 14.66Z" fill="#282739" fill-opacity="1.000000" fill-rule="nonzero"/>
		<path id="path13834" d="M80.36 14.66L80.36 7.94L85.22 7.94L85.22 14.66L84.36 14.66L84.36 8.77L81.22 8.77L81.22 14.66L80.36 14.66Z" fill="#282739" fill-opacity="1.000000" fill-rule="nonzero"/>
		<path id="path13836" d="M80.36 14.66L80.47 14.66L80.47 8.05L85.11 8.05L85.11 14.55L84.47 14.55L84.47 8.66L81.11 8.66L81.11 14.55L80.36 14.55L80.36 14.66L80.47 14.66L80.36 14.66L80.36 14.77L81.22 14.77L81.34 14.77L81.34 8.88L84.25 8.88L84.25 14.77L85.22 14.77L85.33 14.77L85.33 7.83L80.25 7.83L80.25 14.77L80.36 14.77L80.36 14.66Z" fill="#282739" fill-opacity="1.000000" fill-rule="nonzero"/>
		<path id="path13838" d="M86.76 14.66L86.76 7.94L87.62 7.94L87.62 10.82L90.98 10.82L90.98 7.94L91.84 7.94L91.84 14.66L90.98 14.66L90.98 11.63L87.62 11.63L87.62 14.66L86.76 14.66Z" fill="#282739" fill-opacity="1.000000" fill-rule="nonzero"/>
		<path id="path13840" d="M86.76 14.66L86.87 14.66L86.87 8.05L87.51 8.05L87.51 10.93L91.09 10.93L91.09 8.05L91.73 8.05L91.73 14.55L91.09 14.55L91.09 11.52L87.51 11.52L87.51 14.55L86.76 14.55L86.76 14.66L86.87 14.66L86.76 14.66L86.76 14.77L87.62 14.77L87.74 14.77L87.74 11.74L90.87 11.74L90.87 14.77L91.84 14.77L91.96 14.77L91.96 7.83L90.98 7.83L90.87 7.83L90.87 10.71L87.73 10.71L87.74 7.83L86.76 7.83L86.65 7.83L86.65 14.77L86.76 14.77L86.76 14.66Z" fill="#282739" fill-opacity="1.000000" fill-rule="nonzero"/>
		<path id="path13842" d="M94.59 13.23C95.09 13.73 95.69 13.98 96.41 13.98C97.13 13.98 97.74 13.73 98.24 13.23C98.73 12.73 98.98 12.08 98.98 11.3C98.98 10.52 98.73 9.88 98.24 9.37C97.74 8.87 97.13 8.62 96.41 8.62C95.69 8.62 95.09 8.87 94.59 9.37C94.09 9.88 93.84 10.52 93.84 11.3C93.84 12.08 94.09 12.73 94.59 13.23ZM98.88 13.79C98.21 14.47 97.39 14.81 96.41 14.81C95.43 14.81 94.61 14.47 93.95 13.79C93.29 13.11 92.96 12.28 92.96 11.3C92.96 10.32 93.29 9.49 93.95 8.81C94.61 8.13 95.43 7.79 96.41 7.79C97.39 7.79 98.21 8.13 98.87 8.82C99.53 9.5 99.86 10.33 99.86 11.3C99.86 12.28 99.53 13.11 98.88 13.79Z" fill="#282739" fill-opacity="1.000000" fill-rule="nonzero"/>
		<path id="path13844" d="M94.59 13.23L94.51 13.31C95.02 13.83 95.67 14.1 96.41 14.1C97.16 14.1 97.8 13.83 98.32 13.31C98.84 12.78 99.1 12.11 99.1 11.3C99.1 10.5 98.84 9.82 98.32 9.29C97.8 8.77 97.16 8.51 96.41 8.51C95.67 8.51 95.02 8.77 94.51 9.29C93.99 9.82 93.73 10.5 93.73 11.3C93.73 12.11 93.99 12.78 94.51 13.31L94.59 13.23L94.67 13.15C94.19 12.67 93.96 12.06 93.95 11.3C93.96 10.54 94.19 9.94 94.67 9.45C95.15 8.97 95.72 8.73 96.41 8.73C97.11 8.73 97.68 8.97 98.16 9.45L98.16 9.46L98.16 9.45C98.63 9.94 98.87 10.54 98.87 11.3C98.87 12.06 98.63 12.67 98.16 13.15C97.68 13.63 97.11 13.87 96.41 13.87C95.72 13.87 95.15 13.63 94.67 13.15L94.59 13.23ZM98.88 13.79L98.79 13.71C98.15 14.37 97.37 14.7 96.41 14.7C95.46 14.7 94.67 14.37 94.03 13.71L94.03 13.71L94.03 13.71C93.39 13.05 93.07 12.26 93.07 11.3C93.07 10.34 93.39 9.55 94.03 8.89C94.67 8.23 95.46 7.91 96.41 7.9C97.36 7.91 98.15 8.23 98.79 8.89C99.43 9.56 99.75 10.35 99.75 11.3C99.75 12.26 99.43 13.05 98.79 13.71L98.88 13.79L98.96 13.87C99.63 13.17 99.98 12.31 99.98 11.3C99.98 10.3 99.63 9.44 98.95 8.74C98.27 8.03 97.41 7.68 96.41 7.68C95.41 7.68 94.55 8.03 93.87 8.73L93.87 8.73C93.19 9.43 92.85 10.29 92.85 11.3C92.85 12.31 93.19 13.17 93.87 13.87L93.87 13.87C94.55 14.57 95.41 14.92 96.41 14.92C97.42 14.92 98.28 14.57 98.96 13.87L98.88 13.79Z" fill="#282739" fill-opacity="1.000000" fill-rule="nonzero"/>
		<path id="path13846" d="M103.39 14.66L103.39 7.94L104.26 7.94L104.26 10.82L107.61 10.82L107.61 7.94L108.48 7.94L108.48 14.66L107.61 14.66L107.61 11.63L104.26 11.63L104.26 14.66L103.39 14.66Z" fill="#282739" fill-opacity="1.000000" fill-rule="nonzero"/>
		<path id="path13848" d="M103.39 14.66L103.51 14.66L103.51 8.05L104.14 8.05L104.14 10.93L107.73 10.93L107.73 8.05L108.37 8.05L108.37 14.55L107.73 14.55L107.73 11.52L104.14 11.52L104.14 14.55L103.39 14.55L103.39 14.66L103.51 14.66L103.39 14.66L103.39 14.77L104.26 14.77L104.37 14.77L104.37 11.74L107.5 11.74L107.5 14.77L108.48 14.77L108.59 14.77L108.59 7.83L107.61 7.83L107.5 7.83L107.5 10.71L104.37 10.71L104.37 7.83L103.39 7.83L103.28 7.83L103.28 14.77L103.39 14.77L103.39 14.66Z" fill="#282739" fill-opacity="1.000000" fill-rule="nonzero"/>
		<path id="path13850" d="M111.36 12.03L113.59 12.03L112.49 9L112.46 9L111.36 12.03ZM109.45 14.66L111.99 7.94L112.96 7.94L115.49 14.66L114.54 14.66L113.89 12.84L111.07 12.84L110.41 14.66L109.45 14.66Z" fill="#282739" fill-opacity="1.000000" fill-rule="nonzero"/>
		<path id="path13852" d="M111.36 12.03L111.36 12.14L113.75 12.14L112.57 8.89L112.46 8.89L112.38 8.89L111.2 12.14L111.36 12.14L111.36 12.03L111.46 12.07L112.56 9.04L112.46 9L112.46 9.11L112.49 9.11L112.49 9L112.39 9.04L113.43 11.92L111.36 11.92L111.36 12.03L111.46 12.07L111.36 12.03ZM109.45 14.66L109.56 14.7L112.06 8.05L112.88 8.05L115.33 14.55L114.62 14.55L113.97 12.73L110.99 12.73L110.33 14.55L109.45 14.55L109.45 14.66L109.56 14.7L109.45 14.66L109.45 14.77L110.41 14.77L110.49 14.77L111.15 12.95L113.81 12.95L114.46 14.77L115.49 14.77L115.66 14.77L113.04 7.83L111.99 7.83L111.91 7.83L109.29 14.77L109.45 14.77L109.45 14.66Z" fill="#282739" fill-opacity="1.000000" fill-rule="nonzero"/>
	</g>
</svg>
