<svg width="0" height="0" class="hidden">
  
	<symbol  viewBox="0 0 12 12" fill="none" xmlns="http://www.w3.org/2000/svg" xmlns:xlink="http://www.w3.org/1999/xlink" id="viber 1">
	<desc>
			Created with Pixso.
	</desc>
	<defs>
		<clipPath id="clip1_15970">
			<rect id="viber 1" rx="0.000000" width="11.000000" height="11.000000" transform="translate(0.500000 0.500000)" fill="white" fill-opacity="0"/>
		</clipPath>
	</defs>
	<rect id="viber 1" rx="0.000000" width="11.000000" height="11.000000" transform="translate(0.500000 0.500000)" fill="#FFFFFF" fill-opacity="0"/>
	<g clip-path="url(#clip1_15970)">
		<path id="Vector" d="M6.4 6.77C6.27 6.91 6.04 6.91 5.91 6.77L4.31 5.18C4.24 5.11 4.21 5.02 4.21 4.93C4.21 4.84 4.24 4.75 4.31 4.68L4.59 4.4L3.76 3.56L3.07 4.25C2.84 4.48 2.84 4.85 3.07 5.08L6 8.01C6.11 8.12 6.26 8.18 6.42 8.18C6.58 8.18 6.73 8.12 6.84 8.01L7.52 7.33L6.69 6.49L6.4 6.77Z" fill="#5D6C7B" fill-opacity="1.000000" fill-rule="nonzero"/>
		<path id="Vector" d="M11.49 4.23C11.49 3.1 11.05 2.04 10.25 1.24C9.44 0.44 8.38 0 7.26 0L4.75 0C4.75 0 4.75 0 4.75 0C3.62 0 2.56 0.44 1.75 1.24C0.95 2.04 0.51 3.1 0.51 4.23L0.51 6.2C0.51 7.08 0.78 7.92 1.28 8.63C1.72 9.26 2.32 9.76 3.02 10.07L3.02 11.2C3.02 11.79 3.35 11.99 3.63 12C3.83 12 4.03 11.9 4.23 11.7L5.49 10.44L7.26 10.44C8.38 10.44 9.44 10 10.25 9.19C11.05 8.39 11.49 7.33 11.49 6.2L11.49 4.23ZM8.27 7.57L7.33 8.51C7.09 8.75 6.77 8.88 6.42 8.88C6.07 8.88 5.75 8.75 5.51 8.51L2.58 5.58C2.07 5.07 2.07 4.25 2.58 3.75L3.51 2.82C3.58 2.75 3.66 2.71 3.76 2.71C3.85 2.71 3.94 2.75 4.01 2.82L5.34 4.15C5.4 4.21 5.44 4.3 5.44 4.4C5.44 4.49 5.4 4.58 5.34 4.64L5.05 4.93L6.15 6.03L6.44 5.75C6.58 5.61 6.8 5.61 6.94 5.75L8.27 7.08C8.33 7.14 8.37 7.23 8.37 7.32C8.37 7.42 8.33 7.51 8.27 7.57ZM5.73 3.41C5.73 3.21 5.89 3.06 6.09 3.06C7.3 3.06 8.3 4.05 8.3 5.27C8.3 5.46 8.14 5.62 7.94 5.62C7.75 5.62 7.59 5.46 7.59 5.27C7.59 4.44 6.92 3.76 6.09 3.76C5.89 3.76 5.73 3.6 5.73 3.41ZM9.45 5.62C9.26 5.62 9.1 5.46 9.1 5.27C9.1 4.46 8.78 3.7 8.22 3.14C7.65 2.57 6.89 2.25 6.09 2.25C5.89 2.25 5.73 2.1 5.73 1.9C5.73 1.71 5.89 1.55 6.09 1.55C7.08 1.55 8.01 1.94 8.71 2.64C9.41 3.34 9.8 4.27 9.8 5.27C9.8 5.46 9.64 5.62 9.45 5.62Z" fill="#5D6C7B" fill-opacity="1.000000" fill-rule="nonzero"/>
	</g>
</symbol>

<symbol viewBox="0 0 12 12" fill="none" xmlns="http://www.w3.org/2000/svg" xmlns:xlink="http://www.w3.org/1999/xlink" id="003-whatsapp 1">
	<desc>
			Created with Pixso.
	</desc>
	<defs>
		<clipPath id="clip1_15973">
			<rect id="003-whatsapp 1" rx="0.000000" width="11.000000" height="11.000000" transform="translate(0.500000 0.500000)" fill="white" fill-opacity="0"/>
		</clipPath>
	</defs>
	<rect id="003-whatsapp 1" rx="0.000000" width="11.000000" height="11.000000" transform="translate(0.500000 0.500000)" fill="#FFFFFF" fill-opacity="0"/>
	<g clip-path="url(#clip1_15973)">
		<path id="Vector" d="M5.99 0C2.68 0 0 2.68 0 6C0 7.14 0.33 8.27 0.94 9.23L0.01 11.65C-0.04 11.78 0.03 11.93 0.15 11.98C0.18 11.99 0.21 11.99 0.25 11.99C0.27 11.99 0.3 11.99 0.33 11.98L2.83 11.09C5.64 12.84 9.34 11.98 11.09 9.17C12.84 6.35 11.98 2.66 9.17 0.91C8.21 0.31 7.11 0 5.99 0Z" fill="#5D6C7B" fill-opacity="1.000000" fill-rule="nonzero"/>
		<path id="Vector" d="M8.85 7.02C8.85 7.02 8.24 6.72 7.86 6.52C7.42 6.3 6.91 6.71 6.67 6.95C6.3 6.81 5.96 6.59 5.67 6.32C5.39 6.03 5.18 5.69 5.03 5.31C5.27 5.07 5.69 4.56 5.47 4.13C5.27 3.75 4.97 3.13 4.97 3.13C4.92 3.05 4.84 3 4.74 3L4.24 3C3.52 3.12 2.99 3.76 2.99 4.5C2.99 5.28 3.93 6.79 4.57 7.42C5.2 8.05 6.71 8.99 7.49 8.99C8.23 9 8.86 8.47 8.99 7.74L8.99 7.24C8.99 7.15 8.94 7.06 8.85 7.02Z" fill="#F7F7F7" fill-opacity="1.000000" fill-rule="nonzero"/>
	</g>
</symbol>

<symbol viewBox="0 0 12 12" fill="none" xmlns="http://www.w3.org/2000/svg" xmlns:xlink="http://www.w3.org/1999/xlink" id="003-telegram 1">
	<desc>
			Created with Pixso.
	</desc>
	<defs>
		<clipPath id="clip1_15976">
			<rect id="003-telegram 1" rx="0.000000" width="11.000000" height="11.000000" transform="translate(0.500000 0.500000)" fill="white" fill-opacity="0"/>
		</clipPath>
	</defs>
	<rect id="003-telegram 1" rx="0.000000" width="11.000000" height="11.000000" transform="translate(0.500000 0.500000)" fill="#FFFFFF" fill-opacity="0"/>
	<g clip-path="url(#clip1_15976)">
		<path id="Vector" d="M4.7 7.59L4.5 10.38C4.79 10.38 4.91 10.26 5.06 10.11L6.39 8.84L9.15 10.86C9.66 11.14 10.01 10.99 10.15 10.39L11.96 1.91L11.96 1.91C12.12 1.16 11.69 0.86 11.2 1.05L0.55 5.12C-0.17 5.41 -0.16 5.81 0.43 5.99L3.15 6.84L9.47 2.89C9.77 2.69 10.04 2.8 9.82 2.99L4.7 7.59Z" fill="#5D6C7B" fill-opacity="1.000000" fill-rule="nonzero"/>
	</g>
</symbol>

<symbol  viewBox="0 0 16 16" fill="none" xmlns="http://www.w3.org/2000/svg" xmlns:xlink="http://www.w3.org/1999/xlink" id="search">
	<desc>
			Created with Pixso.
	</desc>
	<defs>
		<clipPath id="clip1_15988">
			<rect id="Icon / Outlined / Search" rx="0.000000" width="15.000000" height="15.000000" transform="translate(0.500000 0.500000)" fill="white" fill-opacity="0"/>
		</clipPath>
	</defs>
	<rect id="Icon / Outlined / Search" rx="0.000000" width="15.000000" height="15.000000" transform="translate(0.500000 0.500000)" fill="#FFFFFF" fill-opacity="0"/>
	<g clip-path="url(#clip1_15988)">
		<path id="Vector" d="M15.95 14.85L10.75 9.65C11.56 8.61 12 7.33 12 6C12 4.39 11.37 2.89 10.24 1.75C9.1 0.62 7.6 0 5.99 0C4.39 0 2.88 0.62 1.75 1.75C0.62 2.89 0 4.39 0 6C0 7.6 0.62 9.1 1.75 10.24C2.88 11.37 4.39 12 5.99 12C7.33 12 8.61 11.56 9.65 10.76L14.84 15.95C14.86 15.96 14.88 15.97 14.9 15.98C14.92 15.99 14.94 16 14.96 16C14.98 16 15 15.99 15.02 15.98C15.04 15.97 15.06 15.96 15.07 15.95L15.95 15.08C15.96 15.06 15.97 15.04 15.98 15.02C15.99 15 16 14.98 16 14.96C16 14.94 15.99 14.92 15.98 14.9C15.97 14.88 15.96 14.86 15.95 14.85ZM9.16 9.16C8.31 10.01 7.19 10.48 5.99 10.48C4.8 10.48 3.67 10.01 2.83 9.16C1.98 8.31 1.51 7.19 1.51 6C1.51 4.8 1.98 3.67 2.83 2.83C3.67 1.98 4.8 1.52 5.99 1.52C7.19 1.52 8.32 1.98 9.16 2.83C10.01 3.67 10.47 4.8 10.47 6C10.47 7.19 10.01 8.32 9.16 9.16Z" fill="#FFFFFF" fill-opacity="1.000000" fill-rule="nonzero"/>
	</g>
</symbol>

<symbol  viewBox="0 0 20 11.9773" fill="none" xmlns="http://www.w3.org/2000/svg" xmlns:xlink="http://www.w3.org/1999/xlink" id="weight">
	<desc>
			Created with Pixso.
	</desc>
	<defs/>
	<path id="Vector" d="M19.41 7.25L18.77 7.25L16.73 2.31C17.02 2.27 17.24 2.03 17.24 1.73C17.24 1.41 16.97 1.14 16.65 1.14L11.61 1.14C11.37 0.47 10.73 0 9.98 0C9.23 0 8.59 0.47 8.35 1.14L3.34 1.14C3.02 1.14 2.75 1.41 2.75 1.73C2.75 2.03 2.97 2.27 3.26 2.31L1.22 7.25L0.58 7.25C0.26 7.25 0 7.51 0 7.83C0 10.12 1.85 11.97 4.13 11.97C6.42 11.97 8.27 10.12 8.27 7.83C8.27 7.51 8.01 7.25 7.69 7.25L7.05 7.25L5.01 2.32L8.35 2.32C8.59 2.98 9.23 3.46 9.98 3.46C10.73 3.46 11.37 2.98 11.61 2.32L14.98 2.32L12.94 7.25L12.3 7.25C11.98 7.25 11.72 7.51 11.72 7.83C11.72 10.12 13.57 11.97 15.86 11.97C18.14 11.97 20 10.12 20 7.83C20 7.51 19.73 7.25 19.41 7.25ZM4.13 10.8C2.7 10.8 1.5 9.78 1.22 8.42L7.04 8.42C6.77 9.78 5.57 10.8 4.13 10.8ZM5.78 7.25L2.49 7.25L4.13 3.26L5.78 7.25ZM9.98 2.29C9.67 2.29 9.42 2.04 9.42 1.73C9.42 1.42 9.67 1.17 9.98 1.17C10.29 1.17 10.54 1.42 10.54 1.73C10.54 2.04 10.29 2.29 9.98 2.29ZM15.86 3.26L17.5 7.25L14.21 7.25L15.86 3.26ZM15.86 10.8C14.42 10.8 13.22 9.78 12.95 8.42L18.77 8.42C18.49 9.78 17.29 10.8 15.86 10.8Z" fill="#282739" fill-opacity="1.000000" fill-rule="nonzero"/>
	<path id="Vector" d="M18.19 11.25C17.53 11.7 16.72 11.97 15.86 11.97C14.99 11.97 14.18 11.7 13.52 11.25C13.45 11.2 13.38 11.15 13.31 11.1C13.18 11 13.06 10.89 12.95 10.77C12.59 10.42 12.3 10.01 12.09 9.55C11.85 9.03 11.72 8.45 11.72 7.83C11.72 7.53 11.94 7.28 12.24 7.25C12.26 7.25 12.28 7.25 12.3 7.25L12.94 7.25L13.06 6.96L13.29 6.41L13.33 6.32L13.69 5.43L13.81 5.14L14.11 4.42L14.21 4.18L14.23 4.13L14.33 3.9L14.54 3.37L14.59 3.25L14.98 2.32L11.61 2.32C11.39 2.92 10.84 3.38 10.18 3.45C10.12 3.46 10.05 3.46 9.98 3.46C9.92 3.46 9.87 3.46 9.81 3.46C9.13 3.39 8.57 2.93 8.35 2.32L5.01 2.32L5.4 3.25L5.44 3.36L5.66 3.9L5.76 4.13L5.78 4.18L5.88 4.42L6.18 5.14L6.3 5.43L6.66 6.32L6.72 6.44L6.93 6.96L7.05 7.25L7.69 7.25C7.71 7.25 7.73 7.25 7.75 7.25C8.05 7.28 8.27 7.53 8.27 7.83C8.27 8.45 8.14 9.03 7.9 9.55C7.69 10.01 7.4 10.42 7.04 10.78C6.93 10.89 6.81 11 6.68 11.1C6.61 11.15 6.54 11.2 6.47 11.25C5.81 11.7 5 11.97 4.13 11.97C3.27 11.97 2.46 11.7 1.8 11.25C1.73 11.2 1.66 11.15 1.59 11.1C1.46 11 1.34 10.89 1.22 10.78C0.47 10.02 0 8.98 0 7.83C0 7.51 0.26 7.25 0.58 7.25L1.22 7.25L1.34 6.96L1.73 6.02L1.97 5.43L2.39 4.42L2.49 4.18L2.6 3.9L2.87 3.25L3.26 2.31C3.16 2.3 3.06 2.26 2.99 2.2C2.84 2.09 2.75 1.92 2.75 1.73C2.75 1.41 3.02 1.14 3.34 1.14L8.35 1.14C8.38 1.05 8.42 0.97 8.47 0.89C8.76 0.36 9.33 0 9.98 0C10.62 0 11.19 0.35 11.49 0.87C11.54 0.96 11.58 1.05 11.61 1.14L16.65 1.14C16.97 1.14 17.24 1.41 17.24 1.73C17.24 1.92 17.15 2.09 17 2.2C16.93 2.26 16.83 2.3 16.73 2.31L17.12 3.25L17.39 3.9L17.5 4.18L17.6 4.42L18.02 5.43L18.26 6.02L18.65 6.96L18.77 7.25L19.41 7.25C19.73 7.25 20 7.51 20 7.83C20 8.98 19.52 10.02 18.77 10.78C18.65 10.89 18.53 11 18.4 11.1C18.33 11.15 18.26 11.2 18.19 11.25ZM17.23 10.46C16.83 10.67 16.39 10.79 15.91 10.8C15.89 10.8 15.87 10.8 15.86 10.8C15.84 10.8 15.82 10.8 15.8 10.8C15.33 10.79 14.88 10.67 14.48 10.46C13.7 10.05 13.13 9.31 12.95 8.42L18.77 8.42C18.59 9.31 18.01 10.05 17.23 10.46ZM16.71 7.25L17.5 7.25L17.39 6.96L16.63 5.14L16.63 5.14L16.33 4.42L15.86 3.26L15.38 4.42L15.21 4.82L15.08 5.14L14.98 5.38L14.59 6.32L14.33 6.96L14.21 7.25L16.71 7.25ZM3.66 4.42L3.36 5.14L3.36 5.14L2.6 6.96L2.49 7.25L5.78 7.25L5.66 6.96L5.4 6.32L5.01 5.38L4.91 5.14L4.78 4.82L4.61 4.42L4.13 3.26L3.66 4.42ZM2.95 8.42L1.22 8.42C1.4 9.31 1.98 10.05 2.76 10.46C3.16 10.67 3.6 10.79 4.08 10.8C4.1 10.8 4.12 10.8 4.13 10.8C4.15 10.8 4.17 10.8 4.19 10.8C4.66 10.79 5.11 10.67 5.51 10.46C6.29 10.05 6.86 9.31 7.04 8.42L2.95 8.42ZM9.98 2.29C9.67 2.29 9.42 2.04 9.42 1.73C9.42 1.42 9.67 1.17 9.98 1.17C10.29 1.17 10.54 1.42 10.54 1.73C10.54 2.04 10.29 2.29 9.98 2.29Z" fill="#282739" fill-opacity="1.000000" fill-rule="evenodd"/>
</symbol>

<symbol  viewBox="0 0 16.8 15.2001" fill="none" xmlns="http://www.w3.org/2000/svg" xmlns:xlink="http://www.w3.org/1999/xlink" id="heart">
	<desc>
			Created with Pixso.
	</desc>
	<defs/>
	<path id="Vector" d="M16.39 3.11C16.13 2.5 15.75 1.95 15.28 1.48C14.81 1.02 14.26 0.65 13.65 0.39C13.02 0.13 12.34 -0.01 11.66 0C10.7 0 9.76 0.26 8.95 0.76C8.76 0.88 8.57 1.01 8.4 1.16C8.22 1.01 8.04 0.88 7.84 0.76C7.03 0.26 6.09 0 5.13 0C4.44 0 3.78 0.13 3.14 0.39C2.53 0.65 1.98 1.02 1.51 1.48C1.04 1.95 0.66 2.5 0.4 3.11C0.13 3.74 0 4.42 0 5.11C0 5.77 0.13 6.45 0.39 7.14C0.61 7.72 0.92 8.32 1.33 8.93C1.96 9.89 2.84 10.89 3.93 11.9C5.74 13.59 7.52 14.75 7.6 14.8L8.06 15.1C8.26 15.23 8.53 15.23 8.73 15.1L9.19 14.8C9.27 14.75 11.05 13.59 12.86 11.9C13.95 10.89 14.83 9.89 15.46 8.93C15.87 8.32 16.18 7.72 16.4 7.14C16.66 6.45 16.79 5.77 16.79 5.11C16.8 4.42 16.66 3.74 16.39 3.11ZM8.4 13.54C8.4 13.54 1.47 9.06 1.47 5.11C1.47 3.11 3.11 1.49 5.13 1.49C6.56 1.49 7.79 2.29 8.4 3.46C9 2.29 10.24 1.49 11.66 1.49C13.68 1.49 15.32 3.11 15.32 5.11C15.32 9.06 8.4 13.54 8.4 13.54Z" fill="#282739" fill-opacity="1.000000" fill-rule="nonzero"/>
</symbol>

<symbol  viewBox="0 0 20 16.8529" fill="none" xmlns="http://www.w3.org/2000/svg" xmlns:xlink="http://www.w3.org/1999/xlink" id="basket">
	<desc>
			Created with Pixso.
	</desc>
	<defs/>
	<path id="Vector" d="M19.15 5.68L15 5.68L12.67 0.35C12.54 0.05 12.2 -0.09 11.9 0.04C11.6 0.17 11.47 0.52 11.6 0.82L13.72 5.68L6.27 5.68L8.39 0.82C8.52 0.52 8.39 0.17 8.09 0.04C7.79 -0.09 7.45 0.05 7.32 0.35L4.99 5.68L0.84 5.68C0.3 5.68 -0.1 6.17 0.02 6.68L2.2 16.2C2.29 16.58 2.63 16.85 3.03 16.85L16.96 16.85C17.36 16.85 17.7 16.58 17.79 16.2L19.97 6.68C20.09 6.17 19.69 5.68 19.15 5.68ZM5.1 7.47C5.02 7.47 4.94 7.46 4.87 7.42C4.57 7.29 4.44 6.95 4.57 6.65L5.01 5.64L6.28 5.64L5.64 7.12C5.54 7.34 5.33 7.47 5.1 7.47ZM7.07 13.72C7.07 14.05 6.8 14.31 6.48 14.31C6.16 14.31 5.89 14.05 5.89 13.72L5.89 9.43C5.89 9.1 6.16 8.84 6.48 8.84C6.8 8.84 7.07 9.1 7.07 9.43L7.07 13.72ZM10.58 13.72C10.58 14.05 10.32 14.31 10 14.31C9.67 14.31 9.41 14.05 9.41 13.72L9.41 9.43C9.41 9.1 9.67 8.84 10 8.84C10.32 8.84 10.58 9.1 10.58 9.43L10.58 13.72ZM14.1 13.72C14.1 14.05 13.83 14.31 13.51 14.31C13.19 14.31 12.92 14.05 12.92 13.72L12.92 9.43C12.92 9.1 13.19 8.84 13.51 8.84C13.83 8.84 14.1 9.1 14.1 9.43L14.1 13.72ZM15.12 7.42C15.05 7.46 14.97 7.47 14.89 7.47C14.66 7.47 14.45 7.34 14.35 7.12L13.71 5.64L14.98 5.64L15.42 6.65C15.55 6.95 15.42 7.29 15.12 7.42Z" fill="#6F73EE" fill-opacity="1.000000" fill-rule="nonzero"/>
</symbol>

<symbol  viewBox="0 0 12.5773 15" fill="none" xmlns="http://www.w3.org/2000/svg" xmlns:xlink="http://www.w3.org/1999/xlink" id="location">
	<desc>
			Created with Pixso.
	</desc>
	<defs/>
	<path id="Vector" d="M10.73 1.84C9.54 0.65 7.96 0 6.28 0C4.6 0 3.02 0.65 1.84 1.84C0.65 3.02 0 4.6 0 6.28C0 7.96 0.65 9.54 1.84 10.73L5.97 14.87C6.06 14.95 6.17 15 6.28 15C6.4 15 6.51 14.95 6.59 14.87L10.73 10.73C11.92 9.54 12.57 7.96 12.57 6.28C12.57 4.6 11.92 3.02 10.73 1.84ZM8.26 8.26C7.73 8.79 7.03 9.08 6.28 9.08C5.54 9.08 4.84 8.79 4.31 8.26C3.78 7.73 3.49 7.03 3.49 6.28C3.49 5.54 3.78 4.84 4.31 4.31C4.84 3.78 5.54 3.49 6.28 3.49C7.03 3.49 7.73 3.78 8.26 4.31C8.79 4.84 9.08 5.54 9.08 6.28C9.08 7.03 8.79 7.73 8.26 8.26Z" fill="#FFFFFF" fill-opacity="1.000000" fill-rule="nonzero"/>
</symbol>

<symbol viewBox="0 0 14.6469 15.3171" fill="none" xmlns="http://www.w3.org/2000/svg" xmlns:xlink="http://www.w3.org/1999/xlink" id="scooter">
	<desc>
			Created with Pixso.
	</desc>
	<defs/>
	<path id="Vector" d="M12.26 10.5L9.64 1.52L11.4 1.32C11.77 1.28 12.03 0.96 11.99 0.59C11.95 0.22 11.63 -0.04 11.26 0L6.16 0.55C5.79 0.59 5.53 0.92 5.57 1.28C5.61 1.62 5.9 1.88 6.23 1.88C6.26 1.88 6.28 1.88 6.3 1.87L8.29 1.66L10.97 10.84C10.44 11.15 10.04 11.65 9.87 12.24L4.77 12.24C4.48 11.24 3.54 10.5 2.43 10.5C1.09 10.5 0 11.58 0 12.91C0 14.23 1.09 15.31 2.43 15.31C3.54 15.31 4.48 14.58 4.77 13.57L9.86 13.57C10.16 14.57 11.09 15.31 12.2 15.31C13.55 15.31 14.64 14.23 14.64 12.91C14.64 11.59 13.58 10.53 12.26 10.5Z" fill="#FFFFFF" fill-opacity="1.000000" fill-rule="nonzero"/>
</symbol>

<symbol viewBox="0 0 8.39941 16" fill="none" xmlns="http://www.w3.org/2000/svg" xmlns:xlink="http://www.w3.org/1999/xlink" id="flash">
	<desc>
			Created with Pixso.
	</desc>
	<defs/>
	<path id="Vector" d="M8.39 0L2.39 0L0 8.63L2.4 8.63L0.35 16L1.08 16L8.03 7.36L4.51 7.36L8.39 0Z" fill="#FFFFFF" fill-opacity="1.000000" fill-rule="nonzero"/>
</symbol>

<symbol viewBox="0 0 22 22" fill="none" xmlns="http://www.w3.org/2000/svg" xmlns:xlink="http://www.w3.org/1999/xlink" id="check">
	<desc>
			Created with Pixso.
	</desc>
	<defs>
		<clipPath id="clip1_14942">
			<rect id="Icon / Outlined / CheckCircle" rx="0.000000" width="21.000000" height="21.000000" transform="translate(0.500000 0.500000)" fill="white" fill-opacity="0"/>
		</clipPath>
	</defs>
	<rect id="Icon / Outlined / CheckCircle" rx="0.000000" width="21.000000" height="21.000000" transform="translate(0.500000 0.500000)" fill="#FFFFFF" fill-opacity="0"/>
	<g clip-path="url(#clip1_14942)">
		<path id="Vector" d="M15.01 7.58L14 7.58C13.79 7.58 13.58 7.68 13.45 7.86L10.07 12.55L8.54 10.43C8.41 10.25 8.21 10.14 7.98 10.14L6.98 10.14C6.84 10.14 6.76 10.3 6.84 10.41L9.51 14.13C9.58 14.21 9.66 14.29 9.76 14.34C9.85 14.38 9.96 14.41 10.07 14.41C10.18 14.41 10.28 14.38 10.38 14.34C10.48 14.29 10.56 14.21 10.62 14.13L15.15 7.85C15.23 7.74 15.15 7.58 15.01 7.58Z" fill="#6F73EE" fill-opacity="1.000000" fill-rule="nonzero"/>
		<path id="Vector" d="M11 1.37C5.68 1.37 1.37 5.68 1.37 11C1.37 16.31 5.68 20.62 11 20.62C16.31 20.62 20.62 16.31 20.62 11C20.62 5.68 16.31 1.37 11 1.37ZM11 18.99C6.58 18.99 3 15.41 3 11C3 6.58 6.58 3 11 3C15.41 3 18.99 6.58 18.99 11C18.99 15.41 15.41 18.99 11 18.99Z" fill="#6F73EE" fill-opacity="1.000000" fill-rule="nonzero"/>
	</g>
</symbol>

<symbol viewBox="0 0 18 13.5" fill="none" xmlns="http://www.w3.org/2000/svg" xmlns:xlink="http://www.w3.org/1999/xlink" id="butery">
	<desc>
			Created with Pixso.
	</desc>
	<defs/>
	<path id="Vector" d="M16.5 1.5L16.5 0.75C16.5 0.33 16.16 0 15.75 0L13.5 0C13.08 0 12.75 0.33 12.75 0.75L12.75 1.49L12.53 1.49L12.21 1.18C11.94 0.91 11.55 0.75 11.15 0.75L6.84 0.75C6.44 0.75 6.05 0.91 5.78 1.18L5.46 1.49L5.25 1.49L5.25 0.75C5.25 0.33 4.91 0 4.5 0L2.25 0C1.83 0 1.5 0.33 1.5 0.75L1.5 1.49C0.67 1.5 0 2.17 0 3L0 12C0 12.82 0.67 13.5 1.5 13.5L16.5 13.5C17.32 13.5 18 12.82 18 12L18 3C18 2.17 17.32 1.5 16.5 1.5ZM4.12 5.25L2.62 5.25C2.41 5.25 2.25 5.08 2.25 4.87C2.25 4.66 2.41 4.5 2.62 4.5L4.12 4.5C4.33 4.5 4.5 4.66 4.5 4.87C4.5 5.08 4.33 5.25 4.12 5.25ZM15.37 5.25L15 5.25L15 5.62C15 5.83 14.83 6 14.62 6C14.41 6 14.24 5.83 14.24 5.62L14.24 5.25L13.87 5.25C13.66 5.25 13.49 5.08 13.49 4.87C13.49 4.66 13.66 4.49 13.87 4.49L14.24 4.49L14.24 4.12C14.24 3.91 14.41 3.74 14.62 3.74C14.83 3.74 15 3.91 15 4.12L15 4.5L15.37 4.5C15.58 4.5 15.75 4.66 15.75 4.87C15.75 5.08 15.58 5.25 15.37 5.25Z" fill="#5D6C7B" fill-opacity="1.000000" fill-rule="nonzero"/>
</symbol>

<symbol viewBox="0 0 10.5562 18" fill="none" xmlns="http://www.w3.org/2000/svg" xmlns:xlink="http://www.w3.org/1999/xlink" id="flashG">
	<desc>
			Created with Pixso.
	</desc>
	<defs/>
	<path id="Vector" d="M10.5 0.26C10.41 0.1 10.25 0 10.07 0L3 0C2.79 0 2.6 0.14 2.54 0.34L0.02 8.8C-0.03 8.95 0 9.1 0.09 9.23C0.18 9.35 0.33 9.42 0.48 9.42L4.44 9.42L2.84 17.42C2.8 17.65 2.93 17.88 3.15 17.96C3.2 17.98 3.26 18 3.32 18C3.49 18 3.65 17.91 3.74 17.75L9.96 6.82C10.05 6.67 10.05 6.49 9.96 6.34C9.87 6.19 9.71 6.1 9.54 6.1L6.74 6.1L10.46 0.76C10.57 0.61 10.58 0.42 10.5 0.26Z" fill="#5D6C7B" fill-opacity="1.000000" fill-rule="nonzero"/>
</symbol>

<symbol viewBox="0 0 18 15.5284" fill="none" xmlns="http://www.w3.org/2000/svg" xmlns:xlink="http://www.w3.org/1999/xlink" id="speed">
	<desc>
			Created with Pixso.
	</desc>
	<defs/>
	<path id="Vector" d="M8.47 3.32L8.47 0C6.43 0.11 4.53 0.9 3.01 2.26L5.36 4.61C6.25 3.87 7.32 3.43 8.47 3.32Z" fill="#5D6C7B" fill-opacity="1.000000" fill-rule="nonzero"/>
	<path id="Vector" d="M4.61 5.36L2.26 3C0.9 4.52 0.11 6.43 0 8.46L3.32 8.46C3.43 7.32 3.88 6.24 4.61 5.36Z" fill="#5D6C7B" fill-opacity="1.000000" fill-rule="nonzero"/>
	<path id="Vector" d="M14.67 8.46L17.99 8.46C17.88 6.43 17.09 4.52 15.73 3L13.38 5.36C14.11 6.24 14.56 7.32 14.67 8.46Z" fill="#5D6C7B" fill-opacity="1.000000" fill-rule="nonzero"/>
	<path id="Vector" d="M14.67 9.52C14.49 11.43 13.44 12.6 13.02 13.02C12.82 13.23 12.82 13.56 13.02 13.77L14.62 15.37C14.72 15.47 14.86 15.52 15 15.52C15.13 15.52 15.27 15.47 15.37 15.37C16.95 13.79 17.87 11.73 18 9.52L14.67 9.52Z" fill="#5D6C7B" fill-opacity="1.000000" fill-rule="nonzero"/>
	<path id="Vector" d="M3.27 12.54C3.41 12.31 3.64 11.96 3.9 11.55C3.63 11.01 3.4 10.33 3.32 9.52L0 9.52C0.12 11.73 1.04 13.79 2.62 15.37C2.72 15.47 2.86 15.52 2.99 15.52C3.13 15.52 3.27 15.47 3.37 15.37L3.92 14.82C3.76 14.74 3.61 14.64 3.48 14.51C2.95 13.98 2.87 13.18 3.27 12.54Z" fill="#5D6C7B" fill-opacity="1.000000" fill-rule="nonzero"/>
	<path id="Vector" d="M9.52 0L9.52 3.32C10.67 3.43 11.74 3.87 12.63 4.61L14.98 2.26C13.46 0.9 11.56 0.11 9.52 0Z" fill="#5D6C7B" fill-opacity="1.000000" fill-rule="nonzero"/>
	<path id="Vector" d="M7.82 7.83C7.01 8.65 4.45 12.66 4.16 13.11C4.02 13.32 4.05 13.59 4.23 13.77C4.4 13.94 4.68 13.97 4.88 13.84C5.34 13.55 9.35 10.99 10.17 10.17C10.81 9.53 10.81 8.48 10.17 7.83C9.52 7.18 8.47 7.18 7.82 7.83Z" fill="#5D6C7B" fill-opacity="1.000000" fill-rule="nonzero"/>
</symbol>

<symbol viewBox="0 0 15.0001 18.008" fill="none" xmlns="http://www.w3.org/2000/svg" xmlns:xlink="http://www.w3.org/1999/xlink" id="Timer">
	<desc>
			Created with Pixso.
	</desc>
	<defs/>
	<path id="Vector" d="M12.95 5.35L14.03 4.28L12.96 3.21L11.81 4.37C10.76 3.62 9.53 3.16 8.25 3.03L8.25 1.5L9.75 1.5L9.75 0L5.25 0L5.25 1.5L6.75 1.5L6.75 3.03C5.46 3.16 4.23 3.62 3.18 4.37L2.03 3.21L0.96 4.28L2.04 5.35C1.04 6.42 0.36 7.75 0.11 9.2C-0.15 10.64 0.03 12.13 0.61 13.47C1.19 14.82 2.15 15.96 3.37 16.77C4.6 17.57 6.03 18 7.5 18C8.96 18 10.39 17.57 11.62 16.77C12.84 15.96 13.8 14.82 14.38 13.47C14.96 12.13 15.14 10.64 14.88 9.2C14.63 7.75 13.95 6.42 12.95 5.35ZM7.5 16.5C6.31 16.5 5.15 16.14 4.16 15.48C3.17 14.82 2.41 13.89 1.95 12.79C1.5 11.69 1.38 10.49 1.61 9.32C1.84 8.16 2.41 7.09 3.25 6.25C4.09 5.41 5.16 4.84 6.32 4.61C7.49 4.38 8.69 4.5 9.79 4.95C10.89 5.41 11.82 6.17 12.48 7.16C13.14 8.15 13.5 9.31 13.5 10.5C13.49 12.09 12.86 13.61 11.74 14.74C10.61 15.86 9.09 16.49 7.5 16.5Z" fill="#5D6C7B" fill-opacity="1.000000" fill-rule="nonzero"/>
	<path id="Vector" d="M7.5 6L7.5 10.5L3 10.5C3 11.39 3.26 12.26 3.75 13C4.25 13.74 4.95 14.31 5.77 14.65C6.6 14.99 7.5 15.08 8.37 14.91C9.25 14.73 10.05 14.31 10.68 13.68C11.31 13.05 11.73 12.25 11.91 11.37C12.08 10.5 11.99 9.6 11.65 8.77C11.31 7.95 10.74 7.25 10 6.75C9.26 6.26 8.39 6 7.5 6Z" fill="#5D6C7B" fill-opacity="1.000000" fill-rule="nonzero"/>
</symbol>

<symbol  viewBox="0 0 20 20" fill="none" xmlns="http://www.w3.org/2000/svg" xmlns:xlink="http://www.w3.org/1999/xlink" id="shopcart">
	<desc>
			Created with Pixso.
	</desc>
	<defs>
		<clipPath id="clip29_322">
			<rect id="shopping-cart-2 1" rx="0.000000" width="19.000000" height="19.000000" transform="translate(0.500000 0.500000)" fill="white" fill-opacity="0"/>
		</clipPath>
	</defs>
	<rect id="shopping-cart-2 1" rx="0.000000" width="19.000000" height="19.000000" transform="translate(0.500000 0.500000)" fill="#FFFFFF" fill-opacity="0"/>
	<g clip-path="url(#clip29_322)">
		<path id="Vector" d="M19.7 7.22C19.43 6.89 19.04 6.7 18.61 6.7L14.76 6.7L12.67 1.92C12.54 1.62 12.2 1.49 11.9 1.62C11.6 1.75 11.47 2.09 11.6 2.39L13.48 6.7L6.51 6.7L8.39 2.39C8.52 2.09 8.39 1.75 8.09 1.62C7.79 1.49 7.45 1.62 7.32 1.92L5.23 6.7L1.38 6.7C0.95 6.7 0.56 6.89 0.29 7.22C0.03 7.55 -0.06 7.97 0.03 8.37L2.09 17.36C2.23 17.98 2.78 18.42 3.44 18.42L16.55 18.42C17.2 18.42 17.76 17.98 17.9 17.36L19.96 8.37C20.05 7.97 19.96 7.55 19.7 7.22ZM16.55 17.25L3.44 17.25C3.34 17.25 3.25 17.18 3.23 17.09L1.17 8.11C1.16 8.04 1.18 7.99 1.21 7.95C1.23 7.92 1.29 7.87 1.38 7.87L4.72 7.87L4.57 8.23C4.44 8.52 4.57 8.87 4.87 9C4.94 9.03 5.02 9.05 5.1 9.05C5.33 9.05 5.54 8.92 5.64 8.7L6 7.87L13.99 7.87L14.35 8.7C14.45 8.92 14.66 9.05 14.89 9.05C14.97 9.05 15.05 9.03 15.12 9C15.42 8.87 15.55 8.52 15.42 8.23L15.27 7.87L18.61 7.87C18.7 7.87 18.76 7.92 18.78 7.95C18.81 7.99 18.83 8.04 18.82 8.11L16.76 17.09C16.74 17.18 16.65 17.25 16.55 17.25Z" fill="#6F73EE" fill-opacity="1.000000" fill-rule="nonzero"/>
		<path id="Vector" d="" fill="#6F73EE" fill-opacity="1.000000" fill-rule="evenodd"/>
		<path id="Vector" d="M6.48 10.41C6.16 10.41 5.89 10.68 5.89 11L5.89 15.3C5.89 15.62 6.16 15.88 6.48 15.88C6.8 15.88 7.07 15.62 7.07 15.3L7.07 11C7.07 10.68 6.8 10.41 6.48 10.41Z" fill="#6F73EE" fill-opacity="1.000000" fill-rule="nonzero"/>
		<path id="Vector" d="" fill="#6F73EE" fill-opacity="1.000000" fill-rule="evenodd"/>
		<path id="Vector" d="M10 10.41C9.67 10.41 9.41 10.68 9.41 11L9.41 15.3C9.41 15.62 9.67 15.88 10 15.88C10.32 15.88 10.58 15.62 10.58 15.3L10.58 11C10.58 10.68 10.32 10.41 10 10.41Z" fill="#6F73EE" fill-opacity="1.000000" fill-rule="nonzero"/>
		<path id="Vector" d="" fill="#6F73EE" fill-opacity="1.000000" fill-rule="evenodd"/>
		<path id="Vector" d="M13.51 10.41C13.19 10.41 12.92 10.68 12.92 11L12.92 15.3C12.92 15.62 13.19 15.88 13.51 15.88C13.83 15.88 14.1 15.62 14.1 15.3L14.1 11C14.1 10.68 13.83 10.41 13.51 10.41Z" fill="#6F73EE" fill-opacity="1.000000" fill-rule="nonzero"/>
		<path id="Vector" d="" fill="#6F73EE" fill-opacity="1.000000" fill-rule="evenodd"/>
	</g>
</symbol>

<symbol viewBox="0 0 16.8 15.2" fill="none" xmlns="http://www.w3.org/2000/svg" xmlns:xlink="http://www.w3.org/1999/xlink" id="heartblue">
	<desc>
			Created with Pixso.
	</desc>
	<defs/>
	<path id="Vector" d="M16.39 3.11C16.13 2.5 15.75 1.95 15.28 1.48C14.81 1.02 14.26 0.65 13.65 0.39C13.02 0.13 12.34 -0.01 11.66 0C10.7 0 9.76 0.26 8.95 0.76C8.76 0.88 8.57 1.01 8.4 1.16C8.22 1.01 8.04 0.88 7.84 0.76C7.03 0.26 6.09 0 5.13 0C4.44 0 3.78 0.13 3.14 0.39C2.53 0.65 1.98 1.02 1.51 1.48C1.04 1.95 0.66 2.5 0.4 3.11C0.13 3.74 0 4.42 0 5.11C0 5.77 0.13 6.45 0.39 7.14C0.61 7.72 0.92 8.32 1.33 8.93C1.96 9.89 2.84 10.89 3.93 11.9C5.74 13.59 7.52 14.75 7.6 14.8L8.06 15.1C8.26 15.23 8.53 15.23 8.73 15.1L9.19 14.8C9.27 14.75 11.05 13.59 12.86 11.9C13.95 10.89 14.83 9.89 15.46 8.93C15.87 8.32 16.18 7.72 16.4 7.14C16.66 6.45 16.79 5.77 16.79 5.11C16.8 4.42 16.66 3.74 16.39 3.11ZM8.4 13.54C8.4 13.54 1.47 9.06 1.47 5.11C1.47 3.11 3.11 1.49 5.13 1.49C6.56 1.49 7.79 2.29 8.4 3.46C9 2.29 10.24 1.49 11.66 1.49C13.68 1.49 15.32 3.11 15.32 5.11C15.32 9.06 8.4 13.54 8.4 13.54Z" fill="#6F73EE" fill-opacity="1.000000" fill-rule="nonzero"/>
</symbol>



</svg>