<svg width="123.000000" height="45.000000" viewBox="0 0 123 45" fill="none" xmlns="http://www.w3.org/2000/svg" xmlns:xlink="http://www.w3.org/1999/xlink">
	<desc>
			Created with Pixso.
	</desc>
	<defs>
		<clipPath id="clip1_16105">
			<rect id="003-telegram 2" rx="0.000000" width="19.000000" height="19.000000" transform="translate(12.500000 13.500000)" fill="white" fill-opacity="0"/>
		</clipPath>
	</defs>
	<rect id="Rectangle 183" rx="5.000000" width="123.000000" height="45.000000" fill="#FFFFFF" fill-opacity="1.000000"/>
	<rect id="003-telegram 2" rx="0.000000" width="19.000000" height="19.000000" transform="translate(12.500000 13.500000)" fill="#FFFFFF" fill-opacity="0"/>
	<g clip-path="url(#clip1_16105)">
		<path id="Vector" d="M19.84 25.65L19.51 30.3C19.98 30.3 20.19 30.1 20.44 29.85L22.65 27.73L27.25 31.1C28.1 31.57 28.69 31.32 28.92 30.32L31.94 16.18L31.94 16.18C32.2 14.93 31.49 14.44 30.66 14.75L12.92 21.54C11.71 22.01 11.73 22.69 12.72 22.99L17.25 24.4L27.79 17.81C28.28 17.48 28.74 17.66 28.36 17.99L19.84 25.65Z" fill="#039BE5" fill-opacity="1.000000" fill-rule="nonzero"/>
	</g>
	<path id="Telegram" d="M59.17 19.86L59.17 8.94L60.69 8.94L60.69 19.86L59.17 19.86ZM47.7 11.59L45.11 11.59L45.11 10.06L51.94 10.06L51.94 11.59L49.35 11.59L49.35 19.86L47.7 19.86L47.7 11.59ZM82.52 13.76L81.78 15.03C81.65 14.92 81.52 14.83 81.39 14.78C81.27 14.72 81.11 14.69 80.93 14.69Q80.58 14.69 80.35 14.86Q80.33 14.87 80.31 14.89C80.15 15.02 80.03 15.2 79.96 15.44C79.89 15.66 79.86 15.93 79.86 16.23L79.86 19.86L78.36 19.86L78.36 13.42L79.86 13.42L79.86 14.19C80.01 13.97 80.18 13.78 80.38 13.63C80.69 13.39 81 13.27 81.33 13.27C81.56 13.27 81.78 13.3 81.99 13.38C82.19 13.45 82.37 13.58 82.52 13.76ZM84.47 14.86C84.28 14.96 84.14 15.03 84.03 15.1L83.42 14.04C83.72 13.86 84.1 13.69 84.55 13.52C85.01 13.35 85.54 13.27 86.15 13.27Q86.93 13.27 87.55 13.5C87.96 13.65 88.28 13.88 88.5 14.18C88.73 14.47 88.85 14.84 88.85 15.27L88.85 19.86L87.37 19.86L87.37 18.98C87.33 19.05 87.28 19.11 87.23 19.17C86.99 19.45 86.69 19.66 86.33 19.8C85.98 19.93 85.61 20 85.24 20Q84.76 20 84.34 19.85Q84.23 19.81 84.12 19.76C83.77 19.6 83.5 19.37 83.29 19.06C83.09 18.75 82.98 18.38 82.98 17.94Q82.98 17.35 83.24 16.92Q83.4 16.66 83.64 16.46Q84.3 15.9 85.5 15.9Q86.15 15.9 86.61 16.04C86.91 16.13 87.17 16.23 87.37 16.36L87.37 15.56C87.37 15.36 87.33 15.19 87.27 15.06C87.2 14.93 87.11 14.82 86.97 14.74C86.85 14.65 86.71 14.59 86.54 14.55C86.37 14.52 86.19 14.5 85.99 14.5C85.7 14.5 85.41 14.54 85.14 14.61C84.88 14.68 84.66 14.76 84.47 14.86ZM87.37 17.21C87.22 17.14 87.06 17.08 86.9 17.03C86.58 16.94 86.23 16.89 85.87 16.89C85.55 16.89 85.29 16.93 85.1 17.02C84.9 17.09 84.75 17.2 84.65 17.34C84.56 17.48 84.51 17.65 84.51 17.86C84.51 18.07 84.56 18.26 84.66 18.42C84.77 18.57 84.91 18.68 85.08 18.75C85.27 18.83 85.48 18.87 85.71 18.87C86.02 18.87 86.3 18.81 86.54 18.68C86.79 18.55 86.99 18.37 87.14 18.14C87.29 17.9 87.37 17.62 87.37 17.3L87.37 17.21ZM56.34 19.57C55.81 19.86 55.17 20 54.42 20Q53.47 20 52.73 19.61Q52.71 19.59 52.69 19.58C52.19 19.3 51.81 18.91 51.54 18.4Q51.13 17.65 51.13 16.64Q51.13 15.62 51.54 14.86C51.82 14.36 52.21 13.97 52.71 13.7C53.22 13.42 53.81 13.28 54.49 13.28Q55.51 13.28 56.23 13.67C56.71 13.93 57.08 14.31 57.33 14.81C57.59 15.29 57.71 15.88 57.71 16.57C57.71 16.64 57.71 16.72 57.7 16.81L57.7 16.99L52.68 16.99C52.71 17.28 52.77 17.53 52.87 17.76C53.02 18.09 53.23 18.33 53.5 18.5C53.77 18.67 54.1 18.75 54.49 18.75Q55.12 18.75 55.58 18.5C55.89 18.33 56.14 18.08 56.34 17.73L57.66 18.25Q57.21 19 56.55 19.43Q56.45 19.5 56.34 19.57ZM52.72 15.94C52.76 15.74 52.81 15.57 52.88 15.41C53.03 15.09 53.24 14.85 53.5 14.68C53.77 14.51 54.09 14.43 54.48 14.43C54.79 14.43 55.07 14.5 55.3 14.64C55.55 14.78 55.73 14.97 55.86 15.23C55.98 15.43 56.05 15.67 56.07 15.94L52.72 15.94ZM67.33 19.57C66.8 19.86 66.16 20 65.41 20Q64.46 20 63.72 19.61Q63.7 19.59 63.68 19.58C63.18 19.3 62.8 18.91 62.53 18.4C62.26 17.9 62.12 17.31 62.12 16.64Q62.12 15.62 62.53 14.86C62.81 14.36 63.2 13.97 63.71 13.7C64.21 13.42 64.8 13.28 65.48 13.28Q66.51 13.28 67.22 13.67C67.7 13.93 68.07 14.31 68.33 14.81C68.58 15.29 68.7 15.88 68.7 16.57C68.7 16.64 68.7 16.72 68.69 16.81L68.69 16.99L63.68 16.99C63.7 17.28 63.76 17.53 63.86 17.76C64.01 18.09 64.22 18.33 64.49 18.5C64.76 18.67 65.09 18.75 65.48 18.75Q66.11 18.75 66.58 18.5C66.88 18.33 67.14 18.08 67.33 17.73L68.65 18.25C68.3 18.83 67.86 19.27 67.33 19.57ZM63.72 15.94C63.75 15.74 63.8 15.57 63.87 15.41C64.02 15.09 64.23 14.85 64.49 14.68C64.76 14.51 65.09 14.43 65.47 14.43C65.79 14.43 66.06 14.5 66.3 14.64C66.54 14.78 66.72 14.97 66.86 15.23C66.97 15.43 67.04 15.67 67.06 15.94L63.72 15.94ZM70.1 18.4Q69.67 17.66 69.67 16.6Q69.67 15.53 70.1 14.81C70.39 14.31 70.78 13.93 71.25 13.67C71.74 13.41 72.26 13.28 72.81 13.28C73.35 13.28 73.82 13.42 74.22 13.69C74.53 13.89 74.79 14.15 75 14.49L75 13.42L76.49 13.42L76.49 19.72Q76.49 20.88 76.01 21.64C75.7 22.14 75.3 22.52 74.79 22.76C74.29 23.01 73.74 23.14 73.16 23.14Q72.12 23.14 71.38 22.77C70.88 22.54 70.5 22.21 70.23 21.78Q70.17 21.68 70.12 21.58Q69.82 21.01 69.8 20.29L71.31 20.29C71.32 20.58 71.4 20.84 71.55 21.06C71.7 21.3 71.91 21.48 72.18 21.61C72.45 21.75 72.76 21.82 73.13 21.82C73.44 21.82 73.73 21.75 74.02 21.6C74.31 21.45 74.55 21.22 74.72 20.91C74.91 20.6 75 20.21 75 19.72L75 18.72C74.79 19.06 74.53 19.33 74.22 19.54C73.82 19.8 73.35 19.93 72.81 19.93Q72.4 19.93 72.01 19.83Q71.62 19.74 71.25 19.54C70.78 19.28 70.39 18.9 70.1 18.4ZM75 16.6C75 16.27 74.95 15.99 74.84 15.74C74.73 15.49 74.59 15.28 74.42 15.11C74.24 14.94 74.04 14.81 73.83 14.72Q73.6 14.63 73.37 14.61Q73.27 14.6 73.17 14.6C72.82 14.6 72.5 14.68 72.2 14.83C71.91 14.98 71.68 15.21 71.5 15.51C71.33 15.8 71.24 16.17 71.24 16.6C71.24 17.03 71.33 17.4 71.5 17.7C71.68 18 71.91 18.23 72.2 18.39C72.5 18.54 72.82 18.61 73.17 18.61Q73.28 18.61 73.39 18.6Q73.72 18.56 74.04 18.39C74.32 18.23 74.55 18 74.72 17.7C74.91 17.41 75 17.04 75 16.6ZM99.6 14.41C99.76 14.79 99.84 15.24 99.84 15.76L99.84 19.86L98.31 19.86L98.31 15.94C98.31 15.45 98.22 15.1 98.05 14.86C97.88 14.62 97.61 14.5 97.25 14.5C96.99 14.5 96.76 14.55 96.56 14.67C96.38 14.78 96.23 14.94 96.12 15.16Q95.96 15.48 95.96 15.94L95.96 19.86L94.45 19.86L94.45 15.94C94.45 15.45 94.36 15.1 94.18 14.86C94.02 14.62 93.74 14.5 93.37 14.5Q93.03 14.5 92.76 14.63Q92.73 14.65 92.7 14.67C92.51 14.78 92.36 14.94 92.25 15.16C92.15 15.37 92.1 15.63 92.1 15.94L92.1 19.86L90.61 19.86L90.61 13.42L92.1 13.42L92.1 14.36C92.29 14 92.54 13.74 92.84 13.56C93.14 13.37 93.5 13.28 93.92 13.28Q94.62 13.28 95.08 13.57C95.4 13.77 95.63 14.05 95.77 14.43C96 14.05 96.28 13.76 96.62 13.57C96.96 13.38 97.35 13.28 97.78 13.28C98.25 13.28 98.63 13.38 98.93 13.57C99.23 13.76 99.45 14.04 99.6 14.41Z" fill="#282739" fill-opacity="1.000000" fill-rule="evenodd"/>
	<path id="432" d="M61.42 35L56.49 35L59.8 31.46Q60.03 31.22 60.19 30.97Q60.35 30.73 60.44 30.47Q60.45 30.44 60.46 30.4Q60.53 30.18 60.53 29.93Q60.53 29.87 60.52 29.81Q60.5 29.64 60.44 29.48Q60.42 29.45 60.41 29.42Q60.32 29.24 60.17 29.09Q60 28.91 59.74 28.8Q59.5 28.68 59.18 28.68Q58.73 28.68 58.41 28.88Q58.4 28.89 58.4 28.89Q58.32 28.94 58.26 28.99Q58.04 29.18 57.9 29.48Q57.74 29.87 57.74 30.4L56.89 30.4Q56.89 29.65 57.15 29.08Q57.32 28.73 57.58 28.48Q57.75 28.32 57.94 28.2Q58.46 27.89 59.18 27.89Q59.75 27.89 60.17 28.08Q60.59 28.27 60.87 28.58Q61.14 28.88 61.27 29.24Q61.39 29.58 61.39 29.9Q61.39 29.95 61.39 29.99Q61.37 30.49 61.13 30.97Q61 31.25 60.83 31.49Q60.66 31.72 60.46 31.93L58.24 34.19L61.42 34.19L61.42 35ZM53.35 31.55L53.35 31Q53.7 31 53.95 30.9Q54.22 30.81 54.39 30.64Q54.51 30.54 54.59 30.41Q54.64 30.34 54.67 30.26Q54.7 30.19 54.72 30.11Q54.77 29.96 54.77 29.79Q54.77 29.46 54.65 29.2Q54.58 29.05 54.47 28.94Q54.39 28.86 54.29 28.81Q54.06 28.66 53.71 28.66Q53.39 28.66 53.14 28.79Q53 28.86 52.87 28.97Q52.71 29.12 52.62 29.3Q52.53 29.5 52.53 29.74L51.73 29.74Q51.73 29.23 51.94 28.84Q51.96 28.81 51.98 28.77Q52.07 28.63 52.19 28.5Q52.4 28.28 52.68 28.13Q53.12 27.9 53.7 27.9Q54.29 27.9 54.73 28.16Q55.03 28.34 55.24 28.6Q55.33 28.71 55.4 28.84Q55.48 28.98 55.53 29.13Q55.63 29.43 55.63 29.76Q55.63 29.96 55.58 30.15Q55.51 30.42 55.34 30.65Q55.33 30.68 55.31 30.71Q55.02 31.08 54.55 31.31Q54.5 31.33 54.46 31.35Q54.81 31.46 55.1 31.65Q55.26 31.76 55.39 31.9Q55.54 32.06 55.64 32.26Q55.83 32.62 55.83 33.14Q55.83 33.65 55.63 34.04Q55.59 34.11 55.55 34.17Q55.45 34.33 55.33 34.45Q55.1 34.7 54.78 34.86Q54.28 35.1 53.65 35.1Q53.14 35.1 52.73 34.95Q52.32 34.79 52.03 34.53Q51.87 34.38 51.75 34.21Q51.66 34.07 51.58 33.91Q51.55 33.83 51.52 33.76Q51.43 33.47 51.43 33.14L52.29 33.14Q52.29 33.36 52.36 33.54Q52.4 33.64 52.46 33.74Q52.48 33.77 52.51 33.81Q52.68 34.02 52.94 34.15Q53.25 34.29 53.65 34.29Q54.06 34.29 54.35 34.14Q54.54 34.04 54.67 33.89Q54.75 33.81 54.8 33.71Q54.97 33.43 54.97 33.04Q54.97 32.72 54.84 32.48Q54.78 32.36 54.7 32.27Q54.61 32.16 54.49 32.07Q54.27 31.9 53.98 31.83Q53.7 31.75 53.35 31.75L53.35 31.55ZM48.57 33.6L45.2 33.6L49.07 28L49.43 28L49.43 32.84L50.52 32.84L50.52 33.6L49.43 33.6L49.43 35L48.57 35L48.57 33.6ZM48.57 32.84L46.59 32.84L48.57 29.89L48.57 32.84Z" fill="#5D6C7B" fill-opacity="1.000000" fill-rule="evenodd"/>
</svg>
