<svg width="123.000000" height="45.000000" viewBox="0 0 123 45" fill="none" xmlns="http://www.w3.org/2000/svg" xmlns:xlink="http://www.w3.org/1999/xlink">
	<desc>
			Created with Pixso.
	</desc>
	<defs>
		<clipPath id="clip1_16085">
			<rect id="012-vk 1" rx="0.000000" width="19.000000" height="19.000000" transform="translate(12.500000 13.500000)" fill="white" fill-opacity="0"/>
		</clipPath>
	</defs>
	<rect id="Rectangle 183" rx="5.000000" width="123.000000" height="45.000000" fill="#FFFFFF" fill-opacity="1.000000"/>
	<rect id="012-vk 1" rx="0.000000" width="19.000000" height="19.000000" transform="translate(12.500000 13.500000)" fill="#FFFFFF" fill-opacity="0"/>
	<g clip-path="url(#clip1_16085)">
		<path id="Vector" d="M28.59 23.85C28.27 23.44 28.36 23.26 28.59 22.9C28.6 22.89 31.26 19.2 31.54 17.95L31.54 17.95C31.68 17.5 31.54 17.16 30.88 17.16L28.69 17.16C28.14 17.16 27.88 17.45 27.74 17.77C27.74 17.77 26.63 20.44 25.05 22.16C24.55 22.66 24.31 22.82 24.03 22.82C23.9 22.82 23.68 22.66 23.68 22.21L23.68 17.95C23.68 17.41 23.53 17.16 23.07 17.16L19.63 17.16C19.28 17.16 19.07 17.42 19.07 17.65C19.07 18.17 19.86 18.29 19.94 19.75L19.94 22.91C19.94 23.61 19.82 23.74 19.54 23.74C18.79 23.74 16.99 21.06 15.92 18C15.7 17.4 15.49 17.16 14.93 17.16L12.75 17.16C12.12 17.16 12 17.45 12 17.77C12 18.34 12.74 21.17 15.45 24.9C17.26 27.45 19.81 28.83 22.12 28.83C23.52 28.83 23.69 28.52 23.69 27.99C23.69 25.56 23.56 25.33 24.26 25.33C24.58 25.33 25.14 25.49 26.44 26.72C27.92 28.18 28.17 28.83 29 28.83L31.19 28.83C31.81 28.83 32.13 28.52 31.94 27.92C31.53 26.64 28.72 24.03 28.59 23.85Z" fill="#4B729F" fill-opacity="1.000000" fill-rule="nonzero"/>
	</g>
	<path id="Вконтакте" d="M47.74 15.28L47.74 18.49L49.11 18.49Q49.67 18.49 50.11 18.31C50.39 18.18 50.62 18.01 50.79 17.77Q51.04 17.41 51.04 16.86C51.04 16.59 51 16.36 50.9 16.16C50.81 15.97 50.67 15.8 50.5 15.67C50.32 15.53 50.11 15.44 49.88 15.38C49.65 15.31 49.39 15.28 49.11 15.28L47.74 15.28ZM50.65 14.55Q51.23 14.7 51.69 15C52.01 15.22 52.27 15.49 52.46 15.83C52.64 16.16 52.74 16.57 52.74 17.03Q52.74 18 52.29 18.63Q52.2 18.76 52.09 18.87Q51.68 19.32 51.04 19.57C50.52 19.76 49.91 19.86 49.21 19.86L46.09 19.86L46.09 10.06L49.04 10.06Q49.98 10.06 50.68 10.33C51.15 10.5 51.51 10.77 51.77 11.14C52.04 11.5 52.18 11.96 52.18 12.52Q52.18 13.06 51.96 13.48Q51.88 13.63 51.77 13.77C51.51 14.11 51.15 14.36 50.68 14.54C50.67 14.54 50.66 14.55 50.65 14.55ZM47.74 13.99L48.93 13.99Q49.39 13.99 49.74 13.84C49.97 13.74 50.16 13.59 50.29 13.41Q50.31 13.37 50.33 13.34Q50.48 13.07 50.48 12.71Q50.48 12.31 50.3 12.03Q50.2 11.87 50.05 11.75C49.77 11.53 49.4 11.42 48.93 11.42L47.74 11.42L47.74 13.99ZM82.46 14.88C82.28 14.97 82.13 15.05 82.03 15.11L81.41 14.04C81.7 13.86 82.07 13.69 82.52 13.52C82.97 13.35 83.48 13.27 84.06 13.27Q84.86 13.27 85.46 13.5C85.86 13.65 86.17 13.88 86.4 14.18C86.63 14.47 86.75 14.84 86.75 15.27L86.75 19.86L85.26 19.86L85.26 18.95C85.23 19 85.2 19.05 85.16 19.1C84.95 19.39 84.66 19.62 84.3 19.78C83.93 19.93 83.53 20 83.08 20C82.66 20 82.28 19.93 81.93 19.78C81.59 19.63 81.32 19.41 81.12 19.12C80.92 18.82 80.82 18.45 80.82 18.01C80.82 17.57 80.94 17.2 81.16 16.88C81.38 16.56 81.7 16.32 82.11 16.15C82.53 15.98 83.02 15.9 83.58 15.9Q84.14 15.9 84.58 16.04C84.85 16.12 85.08 16.22 85.26 16.33L85.26 15.44C85.26 15.14 85.14 14.91 84.88 14.75C84.64 14.58 84.34 14.5 83.99 14.5C83.68 14.5 83.4 14.54 83.13 14.61C82.88 14.68 82.66 14.77 82.46 14.88ZM85.26 17.19C85.12 17.12 84.98 17.06 84.84 17.02C84.54 16.92 84.2 16.86 83.81 16.86C83.49 16.86 83.22 16.91 83.01 17C82.79 17.09 82.63 17.21 82.52 17.38C82.41 17.54 82.35 17.73 82.35 17.96C82.35 18.15 82.4 18.32 82.5 18.45C82.62 18.58 82.76 18.68 82.94 18.75C83.13 18.82 83.33 18.85 83.54 18.85C83.87 18.85 84.16 18.8 84.42 18.7C84.68 18.6 84.89 18.43 85.04 18.21C85.19 17.98 85.26 17.68 85.26 17.3L85.26 17.19ZM61.05 18.39C60.76 17.88 60.61 17.29 60.61 16.64C60.61 15.98 60.76 15.39 61.05 14.89C61.36 14.39 61.78 13.99 62.3 13.71Q62.46 13.63 62.62 13.56Q63.29 13.28 64.08 13.28Q64.97 13.28 65.69 13.63Q65.78 13.67 65.86 13.71C66.38 13.99 66.79 14.39 67.09 14.89C67.4 15.39 67.55 15.98 67.55 16.64Q67.55 17.42 67.25 18.07Q67.18 18.24 67.09 18.39C66.79 18.89 66.38 19.29 65.86 19.58C65.33 19.86 64.74 20 64.08 20Q63.24 20 62.54 19.7Q62.42 19.64 62.3 19.58C61.78 19.29 61.36 18.89 61.05 18.39ZM100.52 16.99L105.54 16.99C105.54 16.91 105.55 16.83 105.55 16.77L105.55 16.57C105.55 15.89 105.42 15.31 105.16 14.82C104.91 14.33 104.54 13.95 104.05 13.69C103.58 13.42 103 13.28 102.33 13.28C101.72 13.28 101.19 13.39 100.72 13.62C100.25 13.84 99.87 14.15 99.59 14.55C99.31 14.96 99.12 15.42 99.03 15.95C99.01 16.07 98.99 16.18 98.98 16.29C98.97 16.4 98.97 16.52 98.97 16.64C98.97 17.28 99.1 17.86 99.38 18.38C99.65 18.88 100.03 19.28 100.52 19.57Q100.58 19.6 100.65 19.63Q101.36 20 102.26 20C102.85 20 103.34 19.93 103.73 19.79C104.13 19.64 104.47 19.44 104.75 19.17C105.03 18.91 105.28 18.6 105.49 18.25L104.18 17.73C104.06 17.94 103.91 18.12 103.73 18.28C103.55 18.43 103.35 18.54 103.11 18.63Q102.78 18.75 102.33 18.75C101.97 18.75 101.66 18.68 101.38 18.53C101.11 18.37 100.89 18.13 100.73 17.82C100.62 17.58 100.55 17.31 100.52 16.99ZM100.56 15.94C100.59 15.69 100.65 15.48 100.76 15.28C100.92 15 101.13 14.79 101.41 14.65Q101.48 14.61 101.55 14.58Q101.9 14.43 102.32 14.43Q102.81 14.43 103.14 14.62C103.37 14.75 103.54 14.92 103.66 15.16C103.79 15.38 103.87 15.64 103.91 15.94L100.56 15.94ZM54.31 19.86L54.31 13.42L55.8 13.42L55.8 15.69L58.16 13.42L60.03 13.42L57.24 16.08L60.31 19.86L58.46 19.86L55.8 16.58L55.8 19.86L54.31 19.86ZM69 19.86L69 13.42L70.48 13.42L70.48 15.83L73.77 15.83L73.77 13.42L75.26 13.42L75.26 19.86L73.77 19.86L73.77 17.09L70.48 17.09L70.48 19.86L69 19.86ZM76.29 14.75L76.29 13.42L80.37 13.42L80.37 14.75L79.08 14.75L79.08 19.86L77.59 19.86L77.59 14.75L76.29 14.75ZM88.47 19.86L88.47 13.42L89.95 13.42L89.95 15.69L92.32 13.42L94.18 13.42L91.39 16.08L94.46 19.86L92.61 19.86L89.95 16.58L89.95 19.86L88.47 19.86ZM94.56 14.75L94.56 13.42L98.63 13.42L98.63 14.75L97.34 14.75L97.34 19.86L95.86 19.86L95.86 14.75L94.56 14.75ZM62.41 15.58Q62.16 16.04 62.16 16.64C62.16 17.04 62.24 17.4 62.41 17.7C62.58 18 62.81 18.24 63.1 18.42C63.39 18.59 63.71 18.67 64.08 18.67C64.44 18.67 64.77 18.59 65.06 18.42Q65.26 18.3 65.42 18.13Q65.61 17.95 65.74 17.7C65.91 17.4 66 17.04 66 16.64C66 16.24 65.91 15.88 65.74 15.58Q65.58 15.27 65.33 15.06Q65.2 14.95 65.06 14.86C64.77 14.69 64.44 14.61 64.08 14.61C63.71 14.61 63.39 14.69 63.1 14.86C62.81 15.03 62.58 15.27 62.41 15.58Z" fill="#282739" fill-opacity="1.000000" fill-rule="evenodd"/>
	<path id="3 300" d="M47.52 31.55L47.52 31Q47.87 31 48.12 30.9Q48.39 30.81 48.56 30.64Q48.68 30.54 48.76 30.41Q48.81 30.34 48.84 30.26Q48.87 30.19 48.89 30.11Q48.94 29.96 48.94 29.79Q48.94 29.46 48.82 29.2Q48.75 29.05 48.64 28.94Q48.56 28.86 48.46 28.81Q48.23 28.66 47.88 28.66Q47.56 28.66 47.31 28.79Q47.17 28.86 47.04 28.97Q46.88 29.12 46.79 29.3Q46.7 29.5 46.7 29.74L45.9 29.74Q45.9 29.23 46.11 28.84Q46.13 28.81 46.15 28.77Q46.24 28.63 46.36 28.5Q46.57 28.28 46.85 28.13Q47.29 27.9 47.87 27.9Q48.46 27.9 48.9 28.16Q49.2 28.34 49.41 28.6Q49.5 28.71 49.57 28.84Q49.65 28.98 49.7 29.13Q49.8 29.43 49.8 29.76Q49.8 29.96 49.75 30.15Q49.68 30.42 49.51 30.65Q49.5 30.68 49.48 30.71Q49.19 31.08 48.72 31.31Q48.67 31.33 48.63 31.35Q48.98 31.46 49.27 31.65Q49.43 31.76 49.56 31.9Q49.71 32.06 49.81 32.26Q50 32.62 50 33.14Q50 33.65 49.8 34.04Q49.76 34.11 49.72 34.17Q49.62 34.33 49.5 34.45Q49.27 34.7 48.95 34.86Q48.45 35.1 47.82 35.1Q47.31 35.1 46.9 34.95Q46.49 34.79 46.2 34.53Q46.04 34.38 45.92 34.21Q45.83 34.07 45.75 33.91Q45.72 33.83 45.69 33.76Q45.6 33.47 45.6 33.14L46.46 33.14Q46.46 33.36 46.53 33.54Q46.57 33.64 46.63 33.74Q46.65 33.77 46.68 33.81Q46.85 34.02 47.11 34.15Q47.42 34.29 47.82 34.29Q48.23 34.29 48.52 34.14Q48.71 34.04 48.84 33.89Q48.92 33.81 48.97 33.71Q49.14 33.43 49.14 33.04Q49.14 32.72 49.01 32.48Q48.95 32.36 48.87 32.27Q48.78 32.16 48.66 32.07Q48.44 31.9 48.15 31.83Q47.87 31.75 47.52 31.75L47.52 31.55ZM55.98 31.55L55.98 31Q56.33 31 56.58 30.9Q56.85 30.81 57.02 30.64Q57.14 30.54 57.22 30.41Q57.27 30.34 57.3 30.26Q57.33 30.19 57.35 30.11Q57.4 29.96 57.4 29.79Q57.4 29.46 57.28 29.2Q57.21 29.05 57.1 28.94Q57.02 28.86 56.92 28.81Q56.69 28.66 56.34 28.66Q56.02 28.66 55.77 28.79Q55.63 28.86 55.5 28.97Q55.34 29.12 55.25 29.3Q55.16 29.5 55.16 29.74L54.36 29.74Q54.36 29.23 54.57 28.84Q54.59 28.81 54.61 28.77Q54.7 28.63 54.82 28.5Q55.03 28.28 55.31 28.13Q55.75 27.9 56.33 27.9Q56.92 27.9 57.36 28.16Q57.66 28.34 57.87 28.6Q57.96 28.71 58.03 28.84Q58.11 28.98 58.16 29.13Q58.26 29.43 58.26 29.76Q58.26 29.96 58.21 30.15Q58.14 30.42 57.97 30.65Q57.96 30.68 57.94 30.71Q57.65 31.08 57.18 31.31Q57.13 31.33 57.09 31.35Q57.44 31.46 57.73 31.65Q57.89 31.76 58.02 31.9Q58.17 32.06 58.27 32.26Q58.46 32.62 58.46 33.14Q58.46 33.65 58.26 34.04Q58.22 34.11 58.18 34.17Q58.08 34.33 57.96 34.45Q57.73 34.7 57.41 34.86Q56.91 35.1 56.28 35.1Q55.77 35.1 55.36 34.95Q54.95 34.79 54.66 34.53Q54.5 34.38 54.38 34.21Q54.29 34.07 54.21 33.91Q54.18 33.83 54.15 33.76Q54.06 33.47 54.06 33.14L54.92 33.14Q54.92 33.36 54.99 33.54Q55.03 33.64 55.09 33.74Q55.11 33.77 55.14 33.81Q55.31 34.02 55.57 34.15Q55.88 34.29 56.28 34.29Q56.69 34.29 56.98 34.14Q57.17 34.04 57.3 33.89Q57.38 33.81 57.43 33.71Q57.6 33.43 57.6 33.04Q57.6 32.72 57.47 32.48Q57.41 32.36 57.33 32.27Q57.24 32.16 57.12 32.07Q56.9 31.9 56.61 31.83Q56.33 31.75 55.98 31.75L55.98 31.55ZM59.65 33.35Q59.32 32.54 59.32 31.49Q59.32 30.44 59.65 29.64Q59.97 28.83 60.56 28.36Q60.81 28.16 61.1 28.05Q61.48 27.9 61.92 27.9Q62.35 27.9 62.73 28.05Q63.02 28.16 63.27 28.36Q63.85 28.83 64.18 29.64Q64.52 30.44 64.52 31.49Q64.52 32.54 64.18 33.35Q63.85 34.16 63.27 34.63Q63.02 34.83 62.73 34.94Q62.36 35.1 61.92 35.1Q61.47 35.1 61.09 34.94Q60.81 34.83 60.56 34.63Q59.97 34.16 59.65 33.35ZM65.65 33.35Q65.32 32.54 65.32 31.49Q65.32 30.44 65.65 29.64Q65.97 28.83 66.56 28.36Q66.81 28.16 67.1 28.05Q67.48 27.9 67.92 27.9Q68.35 27.9 68.73 28.05Q69.02 28.16 69.27 28.36Q69.85 28.83 70.18 29.64Q70.52 30.44 70.52 31.49Q70.52 32.54 70.18 33.35Q69.85 34.16 69.27 34.63Q69.02 34.83 68.73 34.94Q68.36 35.1 67.92 35.1Q67.47 35.1 67.09 34.94Q66.81 34.83 66.56 34.63Q65.97 34.16 65.65 33.35ZM60.28 30.37Q60.17 30.89 60.17 31.49Q60.17 32.1 60.28 32.62Q60.4 33.13 60.63 33.51Q60.87 33.88 61.19 34.09Q61.31 34.16 61.44 34.21Q61.66 34.29 61.92 34.29Q62.22 34.29 62.47 34.18Q62.56 34.14 62.65 34.09Q62.97 33.88 63.19 33.51Q63.42 33.13 63.54 32.62Q63.67 32.1 63.67 31.49Q63.67 30.89 63.54 30.37Q63.42 29.86 63.19 29.48Q62.97 29.1 62.65 28.9Q62.56 28.85 62.47 28.81Q62.22 28.7 61.92 28.7Q61.66 28.7 61.44 28.78Q61.31 28.83 61.19 28.9Q60.87 29.1 60.63 29.48Q60.4 29.86 60.28 30.37ZM66.28 30.37Q66.17 30.89 66.17 31.49Q66.17 32.1 66.28 32.62Q66.4 33.13 66.63 33.51Q66.87 33.88 67.19 34.09Q67.31 34.16 67.44 34.21Q67.66 34.29 67.92 34.29Q68.22 34.29 68.47 34.18Q68.56 34.14 68.65 34.09Q68.97 33.88 69.19 33.51Q69.42 33.13 69.54 32.62Q69.67 32.1 69.67 31.49Q69.67 30.89 69.54 30.37Q69.42 29.86 69.19 29.48Q68.97 29.1 68.65 28.9Q68.56 28.85 68.47 28.81Q68.22 28.7 67.92 28.7Q67.66 28.7 67.44 28.78Q67.31 28.83 67.19 28.9Q66.87 29.1 66.63 29.48Q66.4 29.86 66.28 30.37Z" fill="#5D6C7B" fill-opacity="1.000000" fill-rule="evenodd"/>
</svg>
