<svg width="123.000000" height="45.000000" viewBox="0 0 123 45" fill="none" xmlns="http://www.w3.org/2000/svg" xmlns:xlink="http://www.w3.org/1999/xlink">
	<desc>
			Created with Pixso.
	</desc>
	<defs>
		<clipPath id="clip1_16099">
			<rect id="018-youtube 1" rx="0.000000" width="19.000000" height="19.000000" transform="translate(14.500000 13.500000)" fill="white" fill-opacity="0"/>
		</clipPath>
	</defs>
	<rect id="Rectangle 183" rx="5.000000" width="123.000000" height="45.000000" fill="#FFFFFF" fill-opacity="1.000000"/>
	<rect id="018-youtube 1" rx="0.000000" width="19.000000" height="19.000000" transform="translate(14.500000 13.500000)" fill="#FFFFFF" fill-opacity="0"/>
	<g clip-path="url(#clip1_16099)">
		<path id="Vector" d="M14.43 27.89C14.84 29.34 16.09 29.6 16.17 29.65C18.23 30.21 29.75 30.22 31.84 29.65C33.27 29.24 33.53 27.97 33.58 27.89C34.12 24.99 34.16 21.22 33.55 17.94L33.58 18.1C33.17 16.65 31.92 16.39 31.84 16.34C29.81 15.78 18.26 15.76 16.17 16.34C14.74 16.75 14.48 18.02 14.43 18.1C13.85 21.14 13.82 24.63 14.43 27.89ZM22 26.04L22 19.96L27.22 23L22 26.04Z" fill="#E53935" fill-opacity="1.000000" fill-rule="nonzero"/>
	</g>
	<path id="YouTube" d="M80.89 8.94L82.42 8.94L82.42 14.49C82.63 14.16 82.89 13.89 83.2 13.69C83.61 13.42 84.08 13.28 84.62 13.28C85.18 13.28 85.69 13.42 86.17 13.69C86.65 13.95 87.03 14.33 87.32 14.83C87.61 15.33 87.75 15.93 87.75 16.64C87.75 17.34 87.61 17.94 87.32 18.45C87.03 18.95 86.65 19.34 86.17 19.61C85.69 19.87 85.18 20 84.62 20Q84.03 20 83.54 19.78Q83.37 19.7 83.2 19.59C82.89 19.39 82.63 19.12 82.42 18.79L82.42 19.86L80.89 19.86L80.89 8.94ZM82.42 16.64C82.42 17.08 82.51 17.45 82.68 17.76C82.87 18.06 83.1 18.29 83.38 18.45C83.66 18.6 83.95 18.68 84.25 18.68C84.61 18.68 84.93 18.6 85.22 18.45C85.51 18.29 85.74 18.05 85.92 17.75C86.09 17.44 86.18 17.07 86.18 16.64C86.18 16.21 86.09 15.84 85.92 15.53Q85.72 15.19 85.42 14.97Q85.33 14.89 85.22 14.83C84.93 14.68 84.61 14.6 84.25 14.6Q84.15 14.6 84.06 14.61Q83.71 14.65 83.38 14.83Q83.35 14.85 83.32 14.87Q82.94 15.11 82.68 15.53C82.51 15.83 82.42 16.2 82.42 16.64ZM49.2 14.25L51.48 10.06L53.37 10.06L50.05 15.73L50.05 19.86L48.37 19.86L48.37 15.74L45.04 10.06L46.93 10.06L49.2 14.25ZM69.12 11.59L66.53 11.59L66.53 10.06L73.36 10.06L73.36 11.59L70.77 11.59L70.77 19.86L69.12 19.86L69.12 11.59ZM52.8 18.14Q52.48 17.46 52.48 16.64C52.48 15.98 52.63 15.39 52.93 14.89C53.24 14.39 53.66 13.99 54.18 13.71Q54.33 13.63 54.5 13.56Q55.17 13.28 55.96 13.28Q56.85 13.28 57.57 13.63Q57.65 13.67 57.73 13.71C58.26 13.99 58.67 14.39 58.97 14.89C59.27 15.39 59.43 15.98 59.43 16.64Q59.43 17.42 59.13 18.07Q59.06 18.24 58.97 18.39C58.67 18.89 58.26 19.29 57.73 19.58C57.21 19.86 56.62 20 55.96 20Q55.12 20 54.42 19.7Q54.3 19.64 54.18 19.58C53.66 19.29 53.24 18.89 52.93 18.39Q52.86 18.27 52.8 18.14ZM93.91 19.57C93.38 19.86 92.74 20 91.99 20Q91.04 20 90.3 19.61Q90.28 19.59 90.26 19.58C89.76 19.3 89.38 18.91 89.11 18.4C88.84 17.9 88.7 17.31 88.7 16.64C88.7 15.96 88.84 15.37 89.11 14.86C89.39 14.36 89.78 13.97 90.28 13.7C90.79 13.42 91.38 13.28 92.06 13.28Q93.08 13.28 93.8 13.67C94.28 13.93 94.65 14.31 94.9 14.81C95.16 15.29 95.28 15.88 95.28 16.57C95.28 16.64 95.28 16.72 95.27 16.81L95.27 16.99L90.25 16.99C90.28 17.28 90.34 17.53 90.44 17.76C90.59 18.09 90.8 18.33 91.07 18.5C91.34 18.67 91.67 18.75 92.06 18.75C92.48 18.75 92.85 18.67 93.15 18.5C93.46 18.33 93.71 18.08 93.91 17.73L95.23 18.25Q94.78 19 94.13 19.43Q94.02 19.5 93.91 19.57ZM90.29 15.94C90.33 15.74 90.38 15.57 90.45 15.41C90.6 15.09 90.81 14.85 91.07 14.68C91.34 14.51 91.66 14.43 92.05 14.43C92.36 14.43 92.64 14.5 92.87 14.64C93.12 14.78 93.3 14.97 93.43 15.23C93.55 15.43 93.62 15.67 93.64 15.94L90.29 15.94ZM62.43 13.42L62.43 17.34Q62.43 18.03 62.73 18.4C62.92 18.66 63.22 18.78 63.64 18.78Q64.04 18.78 64.35 18.61Q64.37 18.61 64.38 18.6C64.59 18.48 64.76 18.31 64.88 18.1C65 17.88 65.06 17.63 65.06 17.34L65.06 13.42L66.58 13.42L66.58 19.86L65.06 19.86L65.06 18.87C64.86 19.24 64.59 19.52 64.26 19.72C63.95 19.91 63.57 20 63.12 20Q62.29 20 61.76 19.61Q61.59 19.49 61.45 19.33Q61.44 19.32 61.43 19.3Q60.88 18.64 60.88 17.51L60.88 13.42L62.43 13.42ZM74.87 13.42L74.87 17.34Q74.87 18.03 75.17 18.4C75.36 18.66 75.67 18.78 76.08 18.78Q76.48 18.78 76.79 18.61Q76.81 18.61 76.82 18.6C77.03 18.48 77.2 18.31 77.32 18.1C77.44 17.88 77.5 17.63 77.5 17.34L77.5 13.42L79.02 13.42L79.02 19.86L77.5 19.86L77.5 18.87C77.3 19.24 77.03 19.52 76.71 19.72C76.39 19.91 76.01 20 75.56 20Q74.74 20 74.2 19.61Q74.03 19.49 73.89 19.33Q73.88 19.32 73.87 19.3Q73.32 18.64 73.32 17.51L73.32 13.42L74.87 13.42ZM54.29 15.58Q54.04 16.04 54.04 16.64C54.04 17.04 54.12 17.4 54.29 17.7C54.46 18 54.69 18.24 54.98 18.42C55.27 18.59 55.59 18.67 55.96 18.67C56.32 18.67 56.65 18.59 56.94 18.42C57.23 18.24 57.45 18 57.62 17.7C57.79 17.4 57.87 17.04 57.87 16.64Q57.87 16.04 57.62 15.58C57.45 15.27 57.23 15.03 56.94 14.86C56.65 14.69 56.32 14.61 55.96 14.61C55.59 14.61 55.27 14.69 54.98 14.86C54.69 15.03 54.46 15.27 54.29 15.58Z" fill="#282739" fill-opacity="1.000000" fill-rule="evenodd"/>
	<path id="3 603" d="M47.52 31.55L47.52 31Q47.87 31 48.12 30.9Q48.39 30.81 48.56 30.64Q48.68 30.54 48.76 30.41Q48.81 30.34 48.84 30.26Q48.87 30.19 48.89 30.11Q48.94 29.96 48.94 29.79Q48.94 29.46 48.82 29.2Q48.75 29.05 48.64 28.94Q48.56 28.86 48.46 28.81Q48.23 28.66 47.88 28.66Q47.56 28.66 47.31 28.79Q47.17 28.86 47.04 28.97Q46.88 29.12 46.79 29.3Q46.7 29.5 46.7 29.74L45.9 29.74Q45.9 29.23 46.11 28.84Q46.13 28.81 46.15 28.77Q46.24 28.63 46.36 28.5Q46.57 28.28 46.85 28.13Q47.29 27.9 47.87 27.9Q48.46 27.9 48.9 28.16Q49.2 28.34 49.41 28.6Q49.5 28.71 49.57 28.84Q49.65 28.98 49.7 29.13Q49.8 29.43 49.8 29.76Q49.8 29.96 49.75 30.15Q49.68 30.42 49.51 30.65Q49.5 30.68 49.48 30.71Q49.19 31.08 48.72 31.31Q48.67 31.33 48.63 31.35Q48.98 31.46 49.27 31.65Q49.43 31.76 49.56 31.9Q49.71 32.06 49.81 32.26Q50 32.62 50 33.14Q50 33.65 49.8 34.04Q49.76 34.11 49.72 34.17Q49.62 34.33 49.5 34.45Q49.27 34.7 48.95 34.86Q48.45 35.1 47.82 35.1Q47.31 35.1 46.9 34.95Q46.49 34.79 46.2 34.53Q46.04 34.38 45.92 34.21Q45.83 34.07 45.75 33.91Q45.72 33.83 45.69 33.76Q45.6 33.47 45.6 33.14L46.46 33.14Q46.46 33.36 46.53 33.54Q46.57 33.64 46.63 33.74Q46.65 33.77 46.68 33.81Q46.85 34.02 47.11 34.15Q47.42 34.29 47.82 34.29Q48.23 34.29 48.52 34.14Q48.71 34.04 48.84 33.89Q48.92 33.81 48.97 33.71Q49.14 33.43 49.14 33.04Q49.14 32.72 49.01 32.48Q48.95 32.36 48.87 32.27Q48.78 32.16 48.66 32.07Q48.44 31.9 48.15 31.83Q47.87 31.75 47.52 31.75L47.52 31.55ZM59.95 33.35Q59.62 32.54 59.62 31.49Q59.62 30.44 59.95 29.64Q60.27 28.83 60.86 28.36Q61.11 28.16 61.4 28.05Q61.78 27.9 62.22 27.9Q62.65 27.9 63.03 28.05Q63.32 28.16 63.57 28.36Q64.15 28.83 64.48 29.64Q64.82 30.44 64.82 31.49Q64.82 32.54 64.48 33.35Q64.15 34.16 63.57 34.63Q63.32 34.83 63.03 34.94Q62.66 35.1 62.22 35.1Q61.77 35.1 61.39 34.94Q61.11 34.83 60.86 34.63Q60.27 34.16 59.95 33.35ZM67.74 31.55L67.74 31Q68.09 31 68.34 30.9Q68.61 30.81 68.78 30.64Q68.9 30.54 68.98 30.41Q69.03 30.34 69.06 30.26Q69.09 30.19 69.11 30.11Q69.16 29.96 69.16 29.79Q69.16 29.46 69.04 29.2Q68.97 29.05 68.86 28.94Q68.78 28.86 68.68 28.81Q68.44 28.66 68.1 28.66Q67.78 28.66 67.53 28.79Q67.39 28.86 67.26 28.97Q67.1 29.12 67.01 29.3Q66.92 29.5 66.92 29.74L66.12 29.74Q66.12 29.23 66.33 28.84Q66.35 28.81 66.37 28.77Q66.46 28.63 66.58 28.5Q66.79 28.28 67.07 28.13Q67.51 27.9 68.09 27.9Q68.68 27.9 69.12 28.16Q69.42 28.34 69.63 28.6Q69.72 28.71 69.79 28.84Q69.87 28.98 69.92 29.13Q70.02 29.43 70.02 29.76Q70.02 29.96 69.97 30.15Q69.9 30.42 69.73 30.65Q69.72 30.68 69.7 30.71Q69.41 31.08 68.94 31.31Q68.89 31.33 68.85 31.35Q69.2 31.46 69.49 31.65Q69.65 31.76 69.78 31.9Q69.93 32.06 70.03 32.26Q70.22 32.62 70.22 33.14Q70.22 33.65 70.02 34.04Q69.98 34.11 69.94 34.17Q69.84 34.33 69.72 34.45Q69.49 34.7 69.17 34.86Q68.67 35.1 68.04 35.1Q67.53 35.1 67.12 34.95Q66.71 34.79 66.42 34.53Q66.26 34.38 66.14 34.21Q66.05 34.07 65.97 33.91Q65.94 33.83 65.91 33.76Q65.82 33.47 65.82 33.14L66.68 33.14Q66.68 33.36 66.75 33.54Q66.79 33.64 66.85 33.74Q66.87 33.77 66.9 33.81Q67.07 34.02 67.33 34.15Q67.64 34.29 68.04 34.29Q68.44 34.29 68.74 34.14Q68.93 34.04 69.06 33.89Q69.14 33.81 69.19 33.71Q69.36 33.43 69.36 33.04Q69.36 32.72 69.23 32.48Q69.17 32.36 69.09 32.27Q69 32.16 68.88 32.07Q68.66 31.9 68.37 31.83Q68.09 31.75 67.74 31.75L67.74 31.55ZM54.39 31.25L56.76 28L57.83 28L55.87 30.58Q55.93 30.55 55.99 30.52Q56.01 30.51 56.04 30.51Q56.3 30.42 56.65 30.42Q56.97 30.42 57.26 30.52Q57.35 30.55 57.45 30.6Q57.59 30.66 57.72 30.75Q57.93 30.88 58.11 31.07Q58.15 31.12 58.18 31.16Q58.42 31.44 58.55 31.8Q58.71 32.21 58.71 32.7Q58.71 33.41 58.41 33.94Q58.4 33.95 58.4 33.96Q58.22 34.26 57.97 34.49Q57.78 34.66 57.55 34.79Q57.49 34.83 57.42 34.86Q56.93 35.1 56.34 35.1Q55.78 35.1 55.32 34.89Q55.22 34.85 55.12 34.79Q54.88 34.66 54.68 34.47Q54.44 34.25 54.27 33.96Q54.27 33.95 54.26 33.94Q53.96 33.41 53.96 32.7Q53.96 32.27 54.08 31.9Q54.19 31.53 54.39 31.25ZM60.58 30.37Q60.47 30.89 60.47 31.49Q60.47 32.1 60.58 32.62Q60.7 33.13 60.93 33.51Q61.17 33.88 61.49 34.09Q61.61 34.16 61.74 34.21Q61.96 34.29 62.22 34.29Q62.52 34.29 62.77 34.18Q62.86 34.14 62.95 34.09Q63.27 33.88 63.49 33.51Q63.72 33.13 63.84 32.62Q63.97 32.1 63.97 31.49Q63.97 30.89 63.84 30.37Q63.72 29.86 63.49 29.48Q63.27 29.1 62.95 28.9Q62.86 28.85 62.77 28.81Q62.52 28.7 62.22 28.7Q61.96 28.7 61.74 28.78Q61.61 28.83 61.49 28.9Q61.17 29.1 60.93 29.48Q60.7 29.86 60.58 30.37ZM54.96 31.87Q54.77 32.23 54.77 32.7Q54.77 33.18 54.97 33.54L54.97 33.54Q55.08 33.74 55.24 33.9Q55.37 34.02 55.53 34.12Q55.59 34.15 55.66 34.18Q55.96 34.33 56.34 34.33Q56.7 34.33 57 34.19Q57.07 34.16 57.14 34.12Q57.3 34.02 57.44 33.89Q57.59 33.74 57.7 33.54L57.7 33.54Q57.91 33.18 57.91 32.7Q57.91 32.23 57.72 31.87Q57.71 31.85 57.7 31.84Q57.57 31.61 57.39 31.44Q57.27 31.33 57.14 31.25Q57.07 31.21 57 31.18Q56.7 31.04 56.34 31.04Q55.96 31.04 55.66 31.19Q55.59 31.22 55.53 31.25Q55.4 31.33 55.3 31.43Q55.1 31.6 54.97 31.84Q54.96 31.85 54.96 31.87Z" fill="#5D6C7B" fill-opacity="1.000000" fill-rule="evenodd"/>
</svg>
